<svg width="84" height="31" viewBox="0 0 84 31" fill="none" xmlns="http://www.w3.org/2000/svg">
<rect width="84" height="30" transform="translate(0 0.5)" fill="white"/>
<path d="M5.57656 18.74H15.1016V18.29H5.57656V16.595H17.4266V20.375H7.91656V20.81H17.7266V22.505H5.57656V18.74ZM4.60156 13.985H9.38656V11.87H11.7266V13.985H18.3716V15.86H4.60156V13.985ZM15.0266 10.535H5.65156V8.67501H17.3516V13.325H15.0266V10.535Z" fill="#212121"/>
<path d="M20.7036 8.67501H27.2136V13.835H28.1736V8.60001H30.4086V22.31H28.1736V15.71H27.2136V22.235H20.7036V8.67501ZM31.0386 8.48001H33.2886V22.52H31.0386V8.48001ZM22.9836 10.55V20.375H24.9336V10.55H22.9836Z" fill="#212121"/>
<path d="M46.1056 22.505V8.48001H48.4306V22.505H46.1056ZM43.8106 18.32C43.8106 18.85 43.7506 19.36 43.6306 19.85C43.5206 20.33 43.3206 20.76 43.0306 21.14C42.7406 21.52 42.3456 21.82 41.8456 22.04C41.3556 22.27 40.7306 22.385 39.9706 22.385C39.1706 22.385 38.5206 22.27 38.0206 22.04C37.5206 21.81 37.1306 21.505 36.8506 21.125C36.5706 20.755 36.3756 20.325 36.2656 19.835C36.1656 19.345 36.1156 18.84 36.1156 18.32V12.59C36.1156 12.07 36.1656 11.565 36.2656 11.075C36.3756 10.585 36.5706 10.155 36.8506 9.78501C37.1306 9.40501 37.5206 9.10001 38.0206 8.87001C38.5206 8.64001 39.1706 8.52501 39.9706 8.52501C40.7306 8.52501 41.3556 8.64001 41.8456 8.87001C42.3456 9.09001 42.7406 9.39001 43.0306 9.77001C43.3206 10.15 43.5206 10.585 43.6306 11.075C43.7506 11.565 43.8106 12.07 43.8106 12.59V18.32ZM38.4556 18.605C38.4556 19.295 38.5806 19.785 38.8306 20.075C39.0806 20.365 39.4656 20.51 39.9856 20.51C40.5256 20.51 40.9056 20.36 41.1256 20.06C41.3556 19.76 41.4706 19.28 41.4706 18.62V12.29C41.4706 11.63 41.3556 11.15 41.1256 10.85C40.9056 10.55 40.5256 10.4 39.9856 10.4C39.4656 10.4 39.0806 10.545 38.8306 10.835C38.5806 11.125 38.4556 11.615 38.4556 12.305V18.605Z" fill="#212121"/>
<path d="M54.3627 15.635H63.8877V17.51H52.0227V8.67501H63.8127V10.565H54.3627V12.185H63.4977V14.06H54.3627V15.635ZM50.9727 20.33H64.7727V22.205H50.9727V20.33Z" fill="#212121"/>
<path d="M68.7734 8.7625C68.7734 8.61753 68.891 8.5 69.0359 8.5H69.9262C70.0712 8.5 70.1887 8.61753 70.1887 8.7625V10.5491C70.1887 10.6611 70.2599 10.7609 70.3659 10.7973L79.221 13.8422C79.4572 13.9234 79.4572 14.2575 79.221 14.3387L70.3659 17.3836C70.2599 17.42 70.1887 17.5197 70.1887 17.6318V22.2375C70.1887 22.3825 70.0712 22.5 69.9262 22.5H69.0359C68.891 22.5 68.7734 22.3825 68.7734 22.2375V8.7625Z" fill="#9EFD00"/>
</svg>
