<svg width="24" height="24" viewBox="0 0 24 24" fill="none" xmlns="http://www.w3.org/2000/svg">
<g clip-path="url(#clip0_2740_6529)">
<rect y="1" width="24" height="23" rx="4" fill="url(#paint0_linear_2740_6529)"/>
<path d="M9.97266 11.5156V20H8.67188V12.8047H8.625L6.59766 14.1289V12.8984L8.70703 11.5156H9.97266ZM12.1289 20V19.0625L15.0703 16.0977C15.9961 15.125 16.4648 14.5859 16.4648 13.8477C16.4648 13.0156 15.7852 12.4766 14.8945 12.4766C13.957 12.4766 13.3477 13.0742 13.3477 13.9766H12.1289C12.1172 12.4297 13.3008 11.3984 14.918 11.3984C16.5586 11.3984 17.6836 12.4297 17.6953 13.8125C17.6836 14.7617 17.2383 15.5117 15.6445 17.082L13.9219 18.8281V18.8984H17.8359V20H12.1289Z" fill="#757575"/>
<rect x="16" width="2" height="4" rx="1" fill="#8BD300"/>
<rect x="6" width="2" height="4" rx="1" fill="#8BD300"/>
</g>
<defs>
<linearGradient id="paint0_linear_2740_6529" x1="12" y1="1" x2="12" y2="24" gradientUnits="userSpaceOnUse">
<stop offset="0.2749" stop-color="#AEFF23"/>
<stop offset="0.275" stop-color="white"/>
</linearGradient>
<clipPath id="clip0_2740_6529">
<rect width="24" height="24" fill="white"/>
</clipPath>
</defs>
</svg>
