<svg width="156" height="55" viewBox="0 0 156 55" fill="none" xmlns="http://www.w3.org/2000/svg">
<mask id="mask0_5312_13035" style="mask-type:alpha" maskUnits="userSpaceOnUse" x="0" y="0" width="156" height="55">
<rect width="156" height="55" fill="#EEEEEE"/>
</mask>
<g mask="url(#mask0_5312_13035)">
<rect opacity="0.7" x="-11" y="24.373" width="169.017" height="31" transform="rotate(-8.29139 -11 24.373)" fill="#AEFF23"/>
<path opacity="0.7" d="M12.4325 8.59466L146.636 16.5179L144.809 22.3876L145.948 33.8876L144.809 47.464L10.6054 39.5408L9.44739 31.8868L11.9492 22.3876L12.4325 8.59466Z" fill="#AEFF23"/>
<path d="M30.7441 22.962C30.5913 21.591 29.5461 20.7459 28.1735 20.6639C26.3175 20.5529 24.9381 21.8949 24.7852 24.4528C24.6305 27.042 25.8576 28.5084 27.6981 28.6184C29.0395 28.6986 30.176 28.0152 30.5204 26.7053L32.5636 26.8274C32.1221 28.9768 30.2406 30.6018 27.5579 30.4414C24.5788 30.2634 22.5248 27.9649 22.742 24.3307C22.9601 20.681 25.3035 18.661 28.2514 18.8371C30.747 18.9863 32.5943 20.5524 32.7874 23.0841L30.7441 22.962ZM44.5 25.6311C44.2819 29.2809 41.9384 31.3009 38.975 31.1238C36.0115 30.9467 33.9263 28.6463 34.1435 25.0122C34.3616 21.3624 36.7051 19.3424 39.6685 19.5195C42.632 19.6966 44.7181 21.9814 44.5 25.6311ZM42.4568 25.509C42.6106 22.9355 41.3999 21.4544 39.5595 21.3444C37.719 21.2344 36.3405 22.5607 36.1867 25.1343C36.0329 27.7078 37.2436 29.1889 39.084 29.2989C40.9245 29.4089 42.303 28.0826 42.4568 25.509ZM46.6467 20.0931L49.1423 20.2423L52.0053 28.6468L52.1457 28.6552L55.9894 20.6515L58.485 20.8006L57.8101 32.093L55.8604 31.9765L56.3247 24.2091L56.2155 24.2025L52.6181 31.7514L51.1676 31.6647L48.4968 23.7099L48.4032 23.7043L47.9371 31.5029L45.9718 31.3855L46.6467 20.0931ZM62.6026 21.0467L61.9277 32.3391L59.9001 32.2179L60.575 20.9256L62.6026 21.0467ZM73.9886 21.7272L73.3137 33.0196L71.5044 32.9115L66.616 24.8711L66.5224 24.8655L66.061 32.5861L64.0334 32.4649L64.7083 21.1726L66.5487 21.2826L71.4059 29.3211L71.5151 29.3276L71.9765 21.607L73.9886 21.7272ZM83.4279 25.9072C83.1409 24.6848 82.2489 23.8958 80.8764 23.8138C79.0515 23.7047 77.6565 25.0457 77.5046 27.5881C77.3507 30.1616 78.5605 31.6583 80.4477 31.7711C82.1478 31.8727 83.3012 30.9086 83.4284 29.3039L80.808 29.1473L80.9041 27.5408L85.4896 27.8149L85.4085 29.1718C85.2351 32.0729 83.1306 33.7628 80.3387 33.596C77.2192 33.4095 75.246 31.0689 75.4604 27.4815C75.6767 23.863 78.0064 21.8108 80.9698 21.988C83.4654 22.1371 85.2915 23.7959 85.5023 26.0312L83.4279 25.9072ZM97.4016 26.2415C97.3658 25.2689 96.5727 24.658 95.3561 24.5853C94.0772 24.5088 93.26 25.0861 93.2097 25.9283C93.1528 26.8798 94.1277 27.3294 95.0505 27.6036L96.0943 27.9478C97.7555 28.4384 99.3245 29.4244 99.207 31.3896C99.0886 33.3705 97.4478 34.6342 94.7339 34.472C92.098 34.3145 90.5202 32.9523 90.5599 30.7163L92.5564 30.8356C92.5791 32.0266 93.5428 32.6633 94.8218 32.7398C96.1632 32.8199 97.1225 32.2199 97.1803 31.2528C97.2335 30.3638 96.4292 29.9401 95.2313 29.5554L93.9719 29.1514C92.1447 28.557 91.0464 27.5522 91.1434 25.9301C91.2627 23.9336 93.12 22.7141 95.4908 22.8558C97.8928 22.9994 99.4338 24.4533 99.3512 26.358L97.4016 26.2415ZM111.116 29.6125C110.897 33.2623 108.554 35.2823 105.59 35.1052C102.627 34.9281 100.542 32.6277 100.759 28.9936C100.977 25.3438 103.321 23.3238 106.284 23.5009C109.247 23.678 111.334 25.9628 111.116 29.6125ZM109.072 29.4904C109.226 26.9169 108.015 25.4358 106.175 25.3258C104.335 25.2158 102.956 26.5422 102.802 29.1157C102.648 31.6892 103.859 33.1703 105.7 33.2803C107.54 33.3903 108.918 32.064 109.072 29.4904ZM123.001 30.3229C122.782 33.9726 120.439 35.9926 117.476 35.8155C114.512 35.6384 112.427 33.338 112.644 29.7039C112.862 26.0542 115.206 24.0341 118.169 24.2112C121.133 24.3884 123.219 26.6731 123.001 30.3229ZM120.957 30.2008C121.111 27.6272 119.9 26.1461 118.06 26.0361C116.22 25.9261 114.841 27.2525 114.687 29.826C114.533 32.3995 115.744 33.8807 117.585 33.9907C119.425 34.1007 120.804 32.7743 120.957 30.2008ZM134.428 25.3395L133.753 36.6318L131.943 36.5237L127.055 28.4834L126.961 28.4778L126.5 36.1984L124.472 36.0772L125.147 24.7848L126.988 24.8948L131.845 32.9333L131.954 32.9398L132.416 25.2192L134.428 25.3395Z" fill="black"/>
</g>
</svg>
