<svg width="156" height="64" viewBox="0 0 156 64" fill="none" xmlns="http://www.w3.org/2000/svg">
<mask id="mask0_2740_9473" style="mask-type:alpha" maskUnits="userSpaceOnUse" x="0" y="0" width="156" height="64">
<rect width="156" height="64" fill="#D9D9D9"/>
</mask>
<g mask="url(#mask0_2740_9473)">
<rect opacity="0.5" x="-9" y="27.3735" width="169.017" height="31" transform="rotate(-8.29139 -9 27.3735)" fill="#AEFF23"/>
<path opacity="0.5" d="M14.4325 11.5952L148.636 19.5185L146.809 25.3882L147.948 36.8882L146.809 50.4646L12.6054 42.5413L11.4474 34.8873L13.9492 25.3882L14.4325 11.5952Z" fill="#AEFF23"/>
<path d="M32.7441 25.9625C32.5913 24.5916 31.5461 23.7465 30.1735 23.6644C28.3175 23.5535 26.9381 24.8955 26.7852 27.4534C26.6305 30.0425 27.8576 31.509 29.6981 31.619C31.0395 31.6991 32.176 31.0157 32.5204 29.7058L34.5636 29.8279C34.1221 31.9773 32.2406 33.6023 29.5579 33.442C26.5788 33.2639 24.5248 30.9654 24.742 27.3313C24.9601 23.6815 27.3035 21.6615 30.2514 21.8377C32.747 21.9868 34.5943 23.553 34.7874 26.0846L32.7441 25.9625ZM46.5 28.6317C46.2819 32.2814 43.9384 34.3015 40.975 34.1243C38.0115 33.9472 35.9263 31.6469 36.1435 28.0127C36.3616 24.363 38.7051 22.3429 41.6685 22.5201C44.632 22.6972 46.7181 24.982 46.5 28.6317ZM44.4568 28.5096C44.6106 25.936 43.3999 24.4549 41.5595 24.3449C39.719 24.2349 38.3405 25.5613 38.1867 28.1348C38.0329 30.7084 39.2436 32.1895 41.084 32.2995C42.9245 32.4095 44.303 31.0831 44.4568 28.5096ZM48.6467 23.0937L51.1423 23.2428L54.0053 31.6473L54.1457 31.6557L57.9894 23.652L60.485 23.8012L59.8101 35.0935L57.8604 34.977L58.3247 27.2096L58.2155 27.2031L54.6181 34.7519L53.1676 34.6652L50.4968 26.7105L50.4032 26.7049L49.9371 34.5035L47.9718 34.386L48.6467 23.0937ZM64.6026 24.0473L63.9277 35.3396L61.9001 35.2184L62.575 23.9261L64.6026 24.0473ZM75.9886 24.7278L75.3137 36.0201L73.5044 35.912L68.616 27.8717L68.5224 27.8661L68.061 35.5867L66.0334 35.4655L66.7083 24.1731L68.5487 24.2831L73.4059 32.3216L73.5151 32.3281L73.9765 24.6075L75.9886 24.7278ZM85.4279 28.9078C85.1409 27.6853 84.2489 26.8963 82.8764 26.8143C81.0515 26.7052 79.6565 28.0463 79.5046 30.5886C79.3507 33.1621 80.5605 34.6589 82.4477 34.7717C84.1478 34.8733 85.3012 33.9091 85.4284 32.3045L82.808 32.1479L82.9041 30.5413L87.4896 30.8154L87.4085 32.1724C87.2351 35.0734 85.1306 36.7634 82.3387 36.5965C79.2192 36.4101 77.246 34.0694 77.4604 30.4821C77.6767 26.8636 80.0064 24.8114 82.9698 24.9885C85.4654 25.1377 87.2915 26.7964 87.5023 29.0317L85.4279 28.9078ZM99.4016 29.242C99.3658 28.2694 98.5727 27.6585 97.3561 27.5858C96.0772 27.5094 95.26 28.0866 95.2097 28.9289C95.1528 29.8803 96.1277 30.3299 97.0505 30.6042L98.0943 30.9483C99.7555 31.4389 101.324 32.4249 101.207 34.3902C101.089 36.371 99.4478 37.6347 96.7339 37.4725C94.098 37.315 92.5202 35.9528 92.5599 33.7168L94.5564 33.8361C94.5791 35.0271 95.5428 35.6639 96.8218 35.7403C98.1632 35.8205 99.1225 35.2204 99.1803 34.2534C99.2335 33.3643 98.4292 32.9406 97.2313 32.556L95.9719 32.152C94.1447 31.5575 93.0464 30.5527 93.1434 28.9306C93.2627 26.9342 95.12 25.7147 97.4908 25.8564C99.8928 25.9999 101.434 27.4538 101.351 29.3586L99.4016 29.242ZM113.116 32.6131C112.897 36.2628 110.554 38.2829 107.59 38.1058C104.627 37.9286 102.542 35.6283 102.759 31.9941C102.977 28.3444 105.321 26.3243 108.284 26.5015C111.247 26.6786 113.334 28.9634 113.116 32.6131ZM111.072 32.491C111.226 29.9174 110.015 28.4363 108.175 28.3263C106.335 28.2163 104.956 29.5427 104.802 32.1162C104.648 34.6898 105.859 36.1709 107.7 36.2809C109.54 36.3909 110.918 35.0645 111.072 32.491ZM125.001 33.3234C124.782 36.9732 122.439 38.9932 119.476 38.8161C116.512 38.639 114.427 36.3386 114.644 32.7044C114.862 29.0547 117.206 27.0347 120.169 27.2118C123.133 27.3889 125.219 29.6737 125.001 33.3234ZM122.957 33.2013C123.111 30.6278 121.9 29.1467 120.06 29.0367C118.22 28.9267 116.841 30.253 116.687 32.8266C116.533 35.4001 117.744 36.8812 119.585 36.9912C121.425 37.1012 122.804 35.7748 122.957 33.2013ZM136.428 28.34L135.753 39.6324L133.943 39.5243L129.055 31.4839L128.961 31.4783L128.5 39.1989L126.472 39.0777L127.147 27.7854L128.988 27.8954L133.845 35.9339L133.954 35.9404L134.416 28.2198L136.428 28.34Z" fill="black"/>
</g>
</svg>
