<svg width="24" height="24" viewBox="0 0 24 24" fill="none" xmlns="http://www.w3.org/2000/svg">
<path fill-rule="evenodd" clip-rule="evenodd" d="M6.64995 4.25765C6.05638 3.67974 5.09402 3.67974 4.50046 4.25765C3.90689 4.83555 3.90689 5.77251 4.50046 6.35042L9.85497 11.5636L3.60749 17.5851C3.01102 18.16 2.99353 19.1096 3.56843 19.7061C4.14333 20.3026 5.09291 20.3201 5.68939 19.7452L12.0055 13.6575L18.2572 19.7441C18.8508 20.322 19.8131 20.322 20.4067 19.7441C21.0003 19.1662 21.0003 18.2293 20.4067 17.6514L14.1659 11.5752L19.5135 6.42102C20.11 5.84612 20.1275 4.89653 19.5526 4.30006C18.9777 3.70358 18.0281 3.68609 17.4316 4.261L12.0153 9.48142L6.64995 4.25765Z" fill="#757575"/>
</svg>
