<svg width="16" height="16" viewBox="0 0 16 16" fill="none" xmlns="http://www.w3.org/2000/svg">
<path d="M3.23232 1.51593C3.80695 1.47172 4.34049 1.65761 4.71557 2.03268L1.41573 5.33251C1.04066 4.95744 0.854781 4.4239 0.898984 3.84926C0.943187 3.27462 1.21385 2.70597 1.65144 2.26838C2.08902 1.8308 2.65768 1.56013 3.23232 1.51593Z" fill="#616161"/>
<path d="M8.66819 6.74675C8.66819 6.37856 8.36971 6.08008 8.00152 6.08008C7.63333 6.08008 7.33485 6.37856 7.33485 6.74675V8.82959C7.33485 9.0064 7.40509 9.17597 7.53012 9.301L8.9348 10.7057C9.19515 10.966 9.61726 10.966 9.87761 10.7057C10.138 10.4453 10.138 10.0232 9.87761 9.76287L8.66819 8.55345V6.74675Z" fill="#616161"/>
<path fill-rule="evenodd" clip-rule="evenodd" d="M8.00152 14.4906C11.3152 14.4906 14.0015 11.8043 14.0015 8.49056C14.0015 5.17685 11.3152 2.49056 8.00152 2.49056C4.68781 2.49056 2.00152 5.17685 2.00152 8.49056C2.00152 11.8043 4.68781 14.4906 8.00152 14.4906ZM8.00152 12.9906C5.51624 12.9906 3.50152 10.9758 3.50152 8.49056C3.50152 6.00528 5.51624 3.99056 8.00152 3.99056C10.4868 3.99056 12.5015 6.00528 12.5015 8.49056C12.5015 10.9758 10.4868 12.9906 8.00152 12.9906Z" fill="#616161"/>
<path d="M11.2875 2.03268C11.6625 1.65761 12.1961 1.47172 12.7707 1.51593C13.3454 1.56013 13.914 1.8308 14.3516 2.26838C14.7892 2.70597 15.0599 3.27462 15.1041 3.84926C15.1483 4.4239 14.9624 4.95744 14.5873 5.33251L11.2875 2.03268Z" fill="#616161"/>
</svg>
