<svg width="24" height="25" viewBox="0 0 24 25" fill="none" xmlns="http://www.w3.org/2000/svg">
<path fill-rule="evenodd" clip-rule="evenodd" d="M16.6141 7.62259C16.6141 10.171 14.5482 12.2369 11.9998 12.2369C9.45144 12.2369 7.38556 10.171 7.38556 7.62259C7.38556 5.07419 9.45144 3.0083 11.9998 3.0083C14.5482 3.0083 16.6141 5.07419 16.6141 7.62259ZM20.5 19.0776C20.5 17.6606 19.6045 16.3016 18.0104 15.2997C16.4163 14.2977 14.2543 13.7348 12 13.7348C9.74566 13.7348 7.58365 14.2977 5.98959 15.2997C4.39553 16.3016 3.5 17.6606 3.5 19.0776V20.7919C3.5 21.4547 4.03726 21.9919 4.7 21.9919H19.3C19.9627 21.9919 20.5 21.4547 20.5 20.7919V19.0776Z" fill="#BDBDBD"/>
</svg>
