<svg width="88" height="25" viewBox="0 0 88 25" fill="none" xmlns="http://www.w3.org/2000/svg">
<path d="M1.50469 16.4705H12.6172V15.9455H1.50469V13.968H15.3297V18.378H4.23469V18.8855H15.6797V20.863H1.50469V16.4705ZM0.367188 10.923H5.94969V8.45549H8.67969V10.923H16.4322V13.1105H0.367188V10.923ZM12.5297 6.89799H1.59219V4.72799H15.2422V10.153H12.5297V6.89799Z" fill="#212121"/>
<path d="M19.1529 4.72799H26.7479V10.748H27.8679V4.64049H30.4754V20.6355H27.8679V12.9355H26.7479V20.548H19.1529V4.72799ZM31.2104 4.50049H33.8354V20.8805H31.2104V4.50049ZM21.8129 6.91549V18.378H24.0879V6.91549H21.8129Z" fill="#212121"/>
<path d="M48.7886 20.863V4.50049H51.5011V20.863H48.7886ZM46.1111 15.9805C46.1111 16.5988 46.0411 17.1938 45.9011 17.7655C45.7728 18.3255 45.5394 18.8272 45.2011 19.2705C44.8628 19.7138 44.4019 20.0638 43.8186 20.3205C43.2469 20.5888 42.5178 20.723 41.6311 20.723C40.6978 20.723 39.9394 20.5888 39.3561 20.3205C38.7728 20.0522 38.3178 19.6963 37.9911 19.253C37.6644 18.8213 37.4369 18.3197 37.3086 17.748C37.1919 17.1763 37.1336 16.5872 37.1336 15.9805V9.29549C37.1336 8.68882 37.1919 8.09966 37.3086 7.52799C37.4369 6.95632 37.6644 6.45466 37.9911 6.02299C38.3178 5.57966 38.7728 5.22382 39.3561 4.95549C39.9394 4.68716 40.6978 4.55299 41.6311 4.55299C42.5178 4.55299 43.2469 4.68716 43.8186 4.95549C44.4019 5.21216 44.8628 5.56216 45.2011 6.00549C45.5394 6.44882 45.7728 6.95632 45.9011 7.52799C46.0411 8.09966 46.1111 8.68882 46.1111 9.29549V15.9805ZM39.8636 16.313C39.8636 17.118 40.0094 17.6897 40.3011 18.028C40.5928 18.3663 41.0419 18.5355 41.6486 18.5355C42.2786 18.5355 42.7219 18.3605 42.9786 18.0105C43.2469 17.6605 43.3811 17.1005 43.3811 16.3305V8.94549C43.3811 8.17549 43.2469 7.61549 42.9786 7.26549C42.7219 6.91549 42.2786 6.74049 41.6486 6.74049C41.0419 6.74049 40.5928 6.90966 40.3011 7.24799C40.0094 7.58632 39.8636 8.15799 39.8636 8.96299V16.313Z" fill="#212121"/>
<path d="M58.4218 12.848H69.5343V15.0355H55.6918V4.72799H69.4468V6.93299H58.4218V8.82299H69.0793V11.0105H58.4218V12.848ZM54.4668 18.3255H70.5668V20.513H54.4668V18.3255Z" fill="#212121"/>
<path d="M75.2344 4.83018C75.2344 4.66104 75.3715 4.52393 75.5406 4.52393H76.5793C76.7484 4.52393 76.8855 4.66104 76.8855 4.83018V6.9145C76.8855 7.04526 76.9686 7.16159 77.0922 7.20411L87.4232 10.7565C87.6988 10.8512 87.6988 11.241 87.4232 11.3357L77.0922 14.8881C76.9686 14.9306 76.8855 15.0469 76.8855 15.1777V20.551C76.8855 20.7201 76.7484 20.8573 76.5793 20.8573H75.5406C75.3715 20.8573 75.2344 20.7201 75.2344 20.551V4.83018Z" fill="#9EFD00"/>
</svg>
