<svg width="123" height="44" viewBox="0 0 123 44" fill="none" xmlns="http://www.w3.org/2000/svg">
<mask id="mask0_3083_11078" style="mask-type:alpha" maskUnits="userSpaceOnUse" x="0" y="0" width="123" height="44">
<rect width="123" height="44" fill="#D9D9D9"/>
</mask>
<g mask="url(#mask0_3083_11078)">
<rect opacity="0.5" x="-3.37891" y="20.5625" width="128.727" height="22.2047" transform="rotate(-8.29139 -3.37891 20.5625)" fill="#8D4EFF"/>
<path opacity="0.5" d="M5.99371 8.13216L118.526 14.776L117.037 18.9697L118.074 27.22L117.217 36.9421L4.68504 30.2983L3.65944 24.8043L5.6879 18.0142L5.99371 8.13216Z" fill="#8D4EFF"/>
<path d="M15.0263 18.209C14.8111 17.2922 14.1421 16.7004 13.1127 16.6389C11.744 16.5571 10.6978 17.5629 10.5838 19.4696C10.4685 21.3998 11.3758 22.5223 12.7912 22.6069C14.0663 22.6831 14.9313 21.96 15.0267 20.7565L13.0614 20.6391L13.1334 19.4342L16.5726 19.6397L16.5118 20.6575C16.3818 22.8333 14.8033 24.1007 12.7094 23.9756C10.3698 23.8357 8.8899 22.0803 9.0507 19.3898C9.2129 16.6758 10.9602 15.1367 13.1828 15.2696C15.0544 15.3814 16.4241 16.6255 16.5821 18.302L15.0263 18.209ZM25.4979 20.3728C25.3343 23.1101 23.5767 24.6251 21.3541 24.4922C19.1315 24.3594 17.5676 22.6341 17.7305 19.9085C17.8941 17.1712 19.6517 15.6562 21.8743 15.789C24.0969 15.9219 25.6615 17.6354 25.4979 20.3728ZM23.9655 20.2812C24.0809 18.351 23.1729 17.2402 21.7925 17.1577C20.4122 17.0752 19.3783 18.07 19.2629 20.0001C19.1476 21.9303 20.0556 23.0411 21.4359 23.1236C22.8163 23.2061 23.8501 22.2113 23.9655 20.2812ZM27.2218 24.7255L25.5958 24.6284L29.0849 16.3374L30.9566 16.4492L33.445 25.0975L31.819 25.0003L31.2423 22.8644L28.0488 22.6736L27.2218 24.7255ZM28.5316 21.4698L30.9063 21.6117L29.9524 18.1267L29.8822 18.1225L28.5316 21.4698ZM34.4511 25.1576L34.9572 16.6883L36.478 16.7792L36.0487 23.9617L39.792 24.1855L39.7151 25.4722L34.4511 25.1576ZM49.8184 20.441C49.7038 19.4128 48.9199 18.779 47.8905 18.7175C46.4984 18.6343 45.4639 19.6407 45.3492 21.5592C45.2332 23.501 46.1536 24.6009 47.5339 24.6834C48.5399 24.7435 49.3923 24.231 49.6506 23.2485L51.183 23.3401C50.8519 24.9521 49.4407 26.1709 47.4287 26.0506C45.1944 25.9171 43.6539 24.1932 43.8168 21.4676C43.9804 18.7303 45.738 17.2153 47.9489 17.3474C49.8205 17.4593 51.206 18.6339 51.3508 20.5326L49.8184 20.441ZM60.1353 22.4429C59.9717 25.1802 58.2141 26.6953 55.9915 26.5624C53.769 26.4296 52.205 24.7043 52.3679 21.9787C52.5315 19.2414 54.2891 17.7264 56.5117 17.8592C58.7343 17.992 60.2989 19.7056 60.1353 22.4429ZM58.6029 22.3513C58.7183 20.4212 57.8103 19.3103 56.4299 19.2278C55.0496 19.1453 54.0157 20.1401 53.9004 22.0703C53.785 24.0004 54.693 25.1113 56.0733 25.1938C57.4537 25.2763 58.4875 24.2815 58.6029 22.3513ZM61.7454 18.2894L63.617 18.4013L65.7643 24.7047L65.8696 24.7109L68.7524 18.7082L70.6241 18.82L70.1179 27.2893L68.6556 27.2019L69.0038 21.3764L68.9219 21.3715L66.2239 27.0331L65.136 26.9681L63.1329 21.002L63.0627 20.9978L62.7131 26.8467L61.2392 26.7587L61.7454 18.2894ZM71.6854 27.383L72.1916 18.9137L75.3734 19.1039C77.3152 19.22 78.2857 20.4637 78.1886 22.0897C78.0914 23.7157 76.9687 24.8225 75.0151 24.7058L73.3774 24.6079L73.2061 27.4739L71.6854 27.383ZM73.4522 23.3562L74.8794 23.4415C76.0257 23.51 76.5789 22.8974 76.6327 21.9967C76.6873 21.0842 76.2096 20.4335 75.0632 20.365L73.6361 20.2797L73.4522 23.3562ZM79.0785 27.8249L79.5846 19.3556L81.1054 19.4465L80.6761 26.629L84.4194 26.8527L84.3425 28.1395L79.0785 27.8249ZM85.5591 28.2122L86.0653 19.7429L91.575 20.0722L91.4987 21.3473L87.5098 21.1089L87.3713 23.4251L91.0679 23.646L90.9917 24.921L87.2951 24.7001L87.1567 27.0163L91.1691 27.2561L91.0922 28.5429L85.5591 28.2122ZM92.5867 21.4123L92.6629 20.1372L99.4125 20.5406L99.3363 21.8157L96.7277 21.6598L96.2977 28.854L94.777 28.7631L95.207 21.5689L92.5867 21.4123ZM100.1 29.0812L100.606 20.612L106.115 20.9412L106.039 22.2163L102.05 21.9779L101.912 24.2941L105.608 24.515L105.532 25.7901L101.836 25.5692L101.697 27.8853L105.71 28.1251L105.633 29.4119L100.1 29.0812ZM109.949 29.6699L107.071 29.4979L107.578 21.0286L110.502 21.2034C113.029 21.3544 114.466 23.0369 114.309 25.669C114.151 28.3127 112.523 29.8237 109.949 29.6699ZM108.671 28.2669L109.946 28.3431C111.713 28.4487 112.671 27.5316 112.788 25.5781C112.904 23.6362 112.061 22.6232 110.341 22.5204L109.019 22.4414L108.671 28.2669Z" fill="black"/>
</g>
</svg>
