<svg width="20" height="20" viewBox="0 0 20 20" fill="none" xmlns="http://www.w3.org/2000/svg">
<circle cx="10" cy="10" r="10" fill="#FF3B30"/>
<path fill-rule="evenodd" clip-rule="evenodd" d="M9.75 4.37524C9.19772 4.37524 8.75 4.82296 8.75 5.37524V10.2843C8.75 10.8366 9.19771 11.2843 9.75 11.2843H10.1136C10.6659 11.2843 11.1136 10.8366 11.1136 10.2843V5.37524C11.1136 4.82296 10.6659 4.37524 10.1136 4.37524H9.75ZM9.93182 15.83C10.5845 15.83 11.1136 15.3009 11.1136 14.6482C11.1136 13.9955 10.5845 13.4664 9.93182 13.4664C9.27912 13.4664 8.75 13.9955 8.75 14.6482C8.75 15.3009 9.27912 15.83 9.93182 15.83Z" fill="white"/>
</svg>
