<svg width="24" height="24" viewBox="0 0 24 24" fill="none" xmlns="http://www.w3.org/2000/svg">
<path fill-rule="evenodd" clip-rule="evenodd" d="M16.6141 7.1221C16.6141 9.6705 14.5482 11.7364 11.9998 11.7364C9.45144 11.7364 7.38556 9.6705 7.38556 7.1221C7.38556 4.5737 9.45144 2.50781 11.9998 2.50781C14.5482 2.50781 16.6141 4.5737 16.6141 7.1221ZM20.5 18.5771C20.5 17.1601 19.6045 15.8012 18.0104 14.7992C16.4163 13.7972 14.2543 13.2343 12 13.2343C9.74566 13.2343 7.58365 13.7972 5.98959 14.7992C4.39553 15.8012 3.5 17.1601 3.5 18.5771V20.2914C3.5 20.9542 4.03726 21.4914 4.7 21.4914H19.3C19.9627 21.4914 20.5 20.9542 20.5 20.2914V18.5771Z" fill="#424242"/>
</svg>
