<svg width="16" height="16" viewBox="0 0 16 16" fill="none" xmlns="http://www.w3.org/2000/svg">
<path d="M8.66667 15.3333V11.3333L7.26667 10L6.6 12.9333L2 12L2.26667 10.6667L5.46667 11.3333L6.53333 5.93333L5.33333 6.4V8.66667H4V5.53333L6.63333 4.4C7.02222 4.23333 7.30833 4.125 7.49167 4.075C7.675 4.025 7.84444 4 8 4C8.23333 4 8.45 4.06111 8.65 4.18333C8.85 4.30556 9.01111 4.46667 9.13333 4.66667L9.8 5.73333C10.0889 6.2 10.4806 6.58333 10.975 6.88333C11.4694 7.18333 12.0333 7.33333 12.6667 7.33333V8.66667C11.9333 8.66667 11.2472 8.51389 10.6083 8.20833C9.96944 7.90278 9.43333 7.5 9 7L8.6 9L10 10.3333V15.3333H8.66667ZM9 3.66667C8.63333 3.66667 8.31944 3.53611 8.05833 3.275C7.79722 3.01389 7.66667 2.7 7.66667 2.33333C7.66667 1.96667 7.79722 1.65278 8.05833 1.39167C8.31944 1.13056 8.63333 1 9 1C9.36667 1 9.68056 1.13056 9.94167 1.39167C10.2028 1.65278 10.3333 1.96667 10.3333 2.33333C10.3333 2.7 10.2028 3.01389 9.94167 3.275C9.68056 3.53611 9.36667 3.66667 9 3.66667Z" fill="#8BD300"/>
</svg>
