<svg width="320" height="301" viewBox="0 0 320 301" fill="none" xmlns="http://www.w3.org/2000/svg">
<g clip-path="url(#clip0_903_2294)">
<rect y="0.5" width="320" height="300" rx="4" fill="#FAFAFA"/>
<path d="M212.262 234.24H221.787V233.79H212.262V232.095H224.112V235.875H214.602V236.31H224.412V238.005H212.262V234.24ZM211.287 229.485H216.072V227.37H218.412V229.485H225.057V231.36H211.287V229.485ZM221.712 226.035H212.337V224.175H224.037V228.825H221.712V226.035Z" fill="#212121"/>
<path d="M227.389 224.175H233.899V229.335H234.859V224.1H237.094V237.81H234.859V231.21H233.899V237.735H227.389V224.175ZM237.724 223.98H239.974V238.02H237.724V223.98ZM229.669 226.05V235.875H231.619V226.05H229.669Z" fill="#212121"/>
<path d="M252.791 238.005V223.98H255.116V238.005H252.791ZM250.496 233.82C250.496 234.35 250.436 234.86 250.316 235.35C250.206 235.83 250.006 236.26 249.716 236.64C249.426 237.02 249.031 237.32 248.531 237.54C248.041 237.77 247.416 237.885 246.656 237.885C245.856 237.885 245.206 237.77 244.706 237.54C244.206 237.31 243.816 237.005 243.536 236.625C243.256 236.255 243.061 235.825 242.951 235.335C242.851 234.845 242.801 234.34 242.801 233.82V228.09C242.801 227.57 242.851 227.065 242.951 226.575C243.061 226.085 243.256 225.655 243.536 225.285C243.816 224.905 244.206 224.6 244.706 224.37C245.206 224.14 245.856 224.025 246.656 224.025C247.416 224.025 248.041 224.14 248.531 224.37C249.031 224.59 249.426 224.89 249.716 225.27C250.006 225.65 250.206 226.085 250.316 226.575C250.436 227.065 250.496 227.57 250.496 228.09V233.82ZM245.141 234.105C245.141 234.795 245.266 235.285 245.516 235.575C245.766 235.865 246.151 236.01 246.671 236.01C247.211 236.01 247.591 235.86 247.811 235.56C248.041 235.26 248.156 234.78 248.156 234.12V227.79C248.156 227.13 248.041 226.65 247.811 226.35C247.591 226.05 247.211 225.9 246.671 225.9C246.151 225.9 245.766 226.045 245.516 226.335C245.266 226.625 245.141 227.115 245.141 227.805V234.105Z" fill="#212121"/>
<path d="M261.048 231.135H270.573V233.01H258.708V224.175H270.498V226.065H261.048V227.685H270.183V229.56H261.048V231.135ZM257.658 235.83H271.458V237.705H257.658V235.83Z" fill="#212121"/>
<path d="M275.459 224.262C275.459 224.118 275.577 224 275.721 224H276.612C276.757 224 276.874 224.118 276.874 224.262V226.049C276.874 226.161 276.945 226.261 277.051 226.297L285.907 229.342C286.143 229.423 286.143 229.757 285.907 229.839L277.051 232.884C276.945 232.92 276.874 233.02 276.874 233.132V237.738C276.874 237.882 276.757 238 276.612 238H275.721C275.577 238 275.459 237.882 275.459 237.737V224.262Z" fill="#9EFD00"/>
<path d="M161.377 264.059H160.352V254.953H161.377V264.059ZM151.615 256.129H156.318V258.385H158.027V255.199H159.053V263.703H158.027V259.287H156.318V261.68H151.615V256.129ZM155.32 260.832V256.99H152.627V260.832H155.32ZM153.406 262.924H154.473V265.945H161.746V266.848H153.406V262.924ZM172.998 262.158H169.225V264.701H174.283V265.59H163.154V264.701H168.158V262.158H164.59V255.951H172.861V256.84H165.684V258.576H172.602V259.451H165.684V261.283H172.998V262.158ZM178.918 255.746C179.538 255.751 180.091 255.874 180.579 256.115C181.071 256.357 181.456 256.694 181.734 257.127C182.017 257.555 182.158 258.048 182.158 258.604C182.158 259.105 182.044 259.556 181.816 259.957C181.589 260.358 181.27 260.684 180.859 260.935C180.454 261.185 179.989 261.345 179.465 261.413V263.478C180.723 263.423 181.835 263.334 182.801 263.211L182.869 264.018C181.835 264.195 180.748 264.316 179.608 264.38C178.469 264.439 177.273 264.469 176.02 264.469H175.281L175.104 263.566C176.539 263.557 177.633 263.541 178.385 263.519V261.413C177.847 261.349 177.373 261.192 176.963 260.941C176.557 260.691 176.241 260.365 176.013 259.964C175.789 259.558 175.678 259.105 175.678 258.604C175.678 258.048 175.814 257.555 176.088 257.127C176.361 256.694 176.744 256.357 177.236 256.115C177.729 255.874 178.289 255.751 178.918 255.746ZM176.73 258.604C176.726 258.977 176.817 259.312 177.004 259.608C177.191 259.9 177.451 260.128 177.783 260.292C178.116 260.451 178.494 260.531 178.918 260.531C179.333 260.531 179.704 260.451 180.032 260.292C180.365 260.128 180.625 259.9 180.812 259.608C181.003 259.312 181.101 258.977 181.105 258.604C181.101 258.23 181.003 257.897 180.812 257.605C180.625 257.314 180.365 257.086 180.032 256.922C179.704 256.758 179.333 256.676 178.918 256.676C178.494 256.676 178.116 256.758 177.783 256.922C177.451 257.086 177.191 257.314 177.004 257.605C176.817 257.897 176.726 258.23 176.73 258.604ZM183.58 254.953H184.646V259.971H186.629V260.9H184.646V267.107H183.58V254.953ZM200.369 258.193H202.201V259.109H200.369V262.281H199.303V254.953H200.369V258.193ZM190.895 256.252H193.984V254.857H195.051V256.252H198.141V257.141H190.895V256.252ZM191.592 259.902C191.592 259.474 191.713 259.098 191.954 258.774C192.196 258.446 192.537 258.193 192.979 258.016C193.422 257.833 193.934 257.742 194.518 257.742C195.092 257.742 195.6 257.833 196.042 258.016C196.484 258.193 196.826 258.446 197.067 258.774C197.313 259.098 197.439 259.474 197.443 259.902C197.439 260.335 197.313 260.716 197.067 261.044C196.826 261.372 196.484 261.627 196.042 261.81C195.6 261.987 195.092 262.076 194.518 262.076C193.934 262.076 193.422 261.987 192.979 261.81C192.537 261.627 192.196 261.372 191.954 261.044C191.713 260.716 191.592 260.335 191.592 259.902ZM192.617 259.902C192.617 260.176 192.695 260.413 192.85 260.613C193.005 260.814 193.226 260.971 193.513 261.085C193.8 261.194 194.135 261.251 194.518 261.256C194.896 261.251 195.229 261.194 195.516 261.085C195.803 260.971 196.026 260.814 196.186 260.613C196.345 260.413 196.427 260.176 196.432 259.902C196.427 259.643 196.343 259.412 196.179 259.212C196.019 259.011 195.796 258.856 195.509 258.747C195.222 258.633 194.891 258.576 194.518 258.576C194.139 258.576 193.804 258.633 193.513 258.747C193.226 258.856 193.005 259.011 192.85 259.212C192.695 259.412 192.617 259.643 192.617 259.902ZM192.699 262.979H200.369V266.943H192.699V262.979ZM199.303 266.068V263.84H193.752V266.068H199.303ZM205.988 256.43C205.979 257.938 205.822 259.344 205.517 260.647C205.211 261.946 204.653 263.133 203.842 264.209L202.994 263.717C203.701 262.833 204.206 261.86 204.512 260.798C204.822 259.731 205.002 258.572 205.052 257.318H203.24V256.43H205.988ZM205.729 264.51C206.485 263.544 207.002 262.457 207.28 261.249C207.558 260.041 207.713 258.731 207.745 257.318H206.371V256.43H208.682C208.682 257.71 208.622 258.813 208.504 259.738H210.117V255.281H211.143V266.492H210.117V260.627H208.36C208.037 262.377 207.438 263.84 206.562 265.016L205.729 264.51ZM212.387 254.953H213.426V267.107H212.387V254.953ZM224.473 259.971H226.51V260.859H224.473V267.107H223.406V254.953H224.473V259.971ZM214.998 256.908H218.129V255.104H219.195V256.908H222.23V257.797H214.998V256.908ZM215.695 261.598C215.695 261.06 215.823 260.579 216.078 260.155C216.333 259.731 216.687 259.401 217.138 259.164C217.593 258.927 218.106 258.809 218.676 258.809C219.241 258.809 219.749 258.927 220.2 259.164C220.651 259.401 221.005 259.731 221.26 260.155C221.52 260.579 221.652 261.06 221.656 261.598C221.652 262.14 221.52 262.623 221.26 263.047C221.005 263.466 220.651 263.794 220.2 264.031C219.749 264.268 219.241 264.387 218.676 264.387C218.106 264.387 217.593 264.268 217.138 264.031C216.687 263.794 216.333 263.466 216.078 263.047C215.823 262.623 215.695 262.14 215.695 261.598ZM216.721 261.598C216.721 261.962 216.803 262.288 216.967 262.575C217.135 262.858 217.368 263.079 217.664 263.238C217.965 263.398 218.302 263.475 218.676 263.471C219.045 263.475 219.378 263.398 219.674 263.238C219.97 263.079 220.202 262.858 220.371 262.575C220.54 262.288 220.626 261.962 220.631 261.598C220.626 261.238 220.54 260.914 220.371 260.627C220.202 260.335 219.97 260.11 219.674 259.95C219.378 259.791 219.045 259.711 218.676 259.711C218.302 259.711 217.965 259.791 217.664 259.95C217.368 260.11 217.135 260.335 216.967 260.627C216.803 260.914 216.721 261.238 216.721 261.598ZM236.996 259.506H228.67V255.404H229.736V258.645H236.996V259.506ZM227.152 261.16H238.281V262.035H227.152V261.16ZM228.602 263.279H229.668V265.918H237.064V266.807H228.602V263.279ZM252.445 259.574H248.85V261.133H253.854V262.008H242.779V261.133H247.783V259.574H244.215V255.473H252.445V259.574ZM244.01 263.279H252.486V267.107H251.406V264.141H244.01V263.279ZM251.379 258.713V256.334H245.268V258.713H251.379ZM266.008 265.617H254.879V264.729H257.982V261.83H255.891V260.941H257.791V256.977H255.863V256.088H264.941V256.977H263.014V260.941H264.914V261.83H262.822V264.729H266.008V265.617ZM261.961 260.941V256.977H258.857V260.941H261.961ZM261.756 264.729V261.83H259.062V264.729H261.756ZM272.939 256.539H268.592V259.738H269.036C270.125 259.738 271.046 259.709 271.798 259.649C272.554 259.59 273.313 259.483 274.074 259.328L274.211 260.189C273.436 260.354 272.664 260.465 271.894 260.524C271.128 260.584 270.175 260.613 269.036 260.613H268.482H267.539V255.664H272.939V256.539ZM268.729 261.693H276.48V264.688H269.809V266.068H276.932V266.943H268.756V263.84H275.414V262.568H268.729V261.693ZM275.414 254.953H276.48V257.537H278.312V258.426H276.48V261.092H275.414V254.953ZM283.262 256.867C283.257 257.437 283.38 257.979 283.631 258.494C283.886 259.009 284.242 259.463 284.697 259.854C285.153 260.242 285.677 260.536 286.27 260.736L285.668 261.57C284.998 261.32 284.41 260.955 283.904 260.477C283.398 259.998 283.013 259.44 282.749 258.802C282.489 259.531 282.09 260.167 281.553 260.709C281.02 261.251 280.386 261.661 279.652 261.939L279.064 261.064C279.684 260.846 280.229 260.531 280.698 260.121C281.172 259.706 281.539 259.223 281.799 258.672C282.059 258.116 282.191 257.528 282.195 256.908V255.65H283.262V256.867ZM281.047 264.811C281.047 264.327 281.209 263.915 281.532 263.573C281.86 263.227 282.33 262.965 282.94 262.787C283.551 262.605 284.278 262.514 285.121 262.514C285.96 262.514 286.684 262.605 287.295 262.787C287.906 262.965 288.375 263.227 288.703 263.573C289.031 263.915 289.195 264.327 289.195 264.811C289.195 265.289 289.031 265.697 288.703 266.034C288.375 266.376 287.906 266.636 287.295 266.813C286.684 266.991 285.96 267.08 285.121 267.08C284.278 267.08 283.551 266.991 282.94 266.813C282.33 266.636 281.86 266.376 281.532 266.034C281.209 265.697 281.047 265.289 281.047 264.811ZM282.113 264.811C282.113 265.098 282.232 265.348 282.469 265.562C282.706 265.772 283.048 265.934 283.494 266.048C283.945 266.162 284.476 266.219 285.087 266.219C285.711 266.219 286.251 266.162 286.707 266.048C287.163 265.938 287.514 265.779 287.76 265.569C288.006 265.355 288.129 265.102 288.129 264.811C288.129 264.51 288.008 264.252 287.767 264.038C287.525 263.819 287.176 263.653 286.721 263.539C286.27 263.421 285.736 263.361 285.121 263.361C284.501 263.361 283.964 263.421 283.508 263.539C283.057 263.653 282.71 263.819 282.469 264.038C282.232 264.252 282.113 264.51 282.113 264.811ZM285.367 257.564H288.074V254.953H289.154V262.158H288.074V258.453H285.367V257.564Z" fill="#212121"/>
<path d="M173.147 42.205L176.147 57.585L179.847 42.205H180.887L184.587 57.585L187.587 42.205H188.687L185.267 59.205H184.047L180.367 44.125L176.687 59.205H175.467L172.047 42.205H173.147ZM203.779 58.165V59.205H192.879V42.205H203.439V43.245H194.039V49.885H203.119V50.885H194.039V58.165H203.779ZM218.159 58.165V59.205H208.199V42.205H209.359V58.165H218.159ZM222.599 50.705C222.599 49.1583 222.705 47.8383 222.919 46.745C223.132 45.6383 223.472 44.7383 223.939 44.045C224.419 43.3383 225.045 42.825 225.819 42.505C226.592 42.1717 227.539 42.005 228.659 42.005C229.632 42.005 230.452 42.1583 231.119 42.465C231.785 42.7583 232.332 43.1517 232.759 43.645C233.185 44.1383 233.505 44.7117 233.719 45.365C233.945 46.0183 234.099 46.6917 234.179 47.385H233.019C232.899 45.9717 232.479 44.8917 231.759 44.145C231.039 43.3983 229.992 43.025 228.619 43.025C227.739 43.025 226.985 43.1517 226.359 43.405C225.745 43.645 225.245 44.0583 224.859 44.645C224.472 45.2317 224.192 46.0183 224.019 47.005C223.845 47.9917 223.759 49.225 223.759 50.705C223.759 52.1717 223.845 53.3983 224.019 54.385C224.205 55.3583 224.492 56.1383 224.879 56.725C225.265 57.325 225.772 57.7517 226.399 58.005C227.025 58.2583 227.779 58.385 228.659 58.385C230.032 58.385 231.105 57.9983 231.879 57.225C232.652 56.4517 233.072 55.225 233.139 53.545H234.279C234.212 54.3317 234.072 55.085 233.859 55.805C233.645 56.5117 233.319 57.1317 232.879 57.665C232.452 58.1983 231.899 58.6183 231.219 58.925C230.539 59.245 229.699 59.405 228.699 59.405C227.552 59.405 226.585 59.2383 225.799 58.905C225.025 58.5717 224.399 58.0517 223.919 57.345C223.452 56.6517 223.112 55.7583 222.899 54.665C222.699 53.5583 222.599 52.2383 222.599 50.705ZM250.34 53.825C250.34 54.8517 250.186 55.7183 249.88 56.425C249.573 57.1317 249.153 57.705 248.62 58.145C248.1 58.585 247.493 58.905 246.8 59.105C246.106 59.305 245.373 59.405 244.6 59.405C243.826 59.405 243.086 59.305 242.38 59.105C241.686 58.905 241.073 58.585 240.54 58.145C240.02 57.705 239.6 57.1317 239.28 56.425C238.973 55.7183 238.82 54.8583 238.82 53.845V47.565C238.82 46.5517 238.973 45.6917 239.28 44.985C239.6 44.2783 240.02 43.705 240.54 43.265C241.073 42.825 241.686 42.505 242.38 42.305C243.086 42.105 243.826 42.005 244.6 42.005C245.373 42.005 246.106 42.105 246.8 42.305C247.493 42.505 248.1 42.825 248.62 43.265C249.153 43.705 249.573 44.285 249.88 45.005C250.186 45.7117 250.34 46.5717 250.34 47.585V53.825ZM239.98 53.845C239.98 54.805 240.12 55.585 240.4 56.185C240.68 56.7717 241.04 57.225 241.48 57.545C241.92 57.8783 242.413 58.0983 242.96 58.205C243.506 58.325 244.053 58.385 244.6 58.385C245.133 58.385 245.673 58.325 246.22 58.205C246.766 58.0983 247.26 57.8783 247.7 57.545C248.14 57.225 248.493 56.7717 248.76 56.185C249.04 55.585 249.18 54.805 249.18 53.845V47.565C249.18 46.605 249.04 45.8317 248.76 45.245C248.493 44.645 248.14 44.185 247.7 43.865C247.26 43.5317 246.766 43.3117 246.22 43.205C245.673 43.085 245.133 43.025 244.6 43.025C244.053 43.025 243.506 43.085 242.96 43.205C242.413 43.3117 241.92 43.5317 241.48 43.865C241.04 44.185 240.68 44.645 240.4 45.245C240.12 45.8317 239.98 46.605 239.98 47.565V53.845ZM267.807 42.205H269.167V59.205H268.087V44.465L263.007 59.205H261.647L256.607 44.465V59.205H255.527V42.205H256.887L262.327 58.065L267.807 42.205ZM285.244 58.165V59.205H274.344V42.205H284.904V43.245H275.504V49.885H284.584V50.885H275.504V58.165H285.244Z" fill="#9E9E9E"/>
<g filter="url(#filter0_f_903_2294)">
<ellipse cx="21.0489" cy="10.5951" rx="21.0489" ry="10.5951" transform="matrix(0.992478 0.122421 -0.0985082 0.995136 57.623 212.635)" fill="#DBEFDD" fill-opacity="0.5"/>
</g>
<g filter="url(#filter1_f_903_2294)">
<ellipse cx="16.277" cy="7.21951" rx="16.277" ry="7.21951" transform="matrix(0.992478 0.122421 -0.0985082 0.995136 56.0293 215.789)" fill="#EBD5F3" fill-opacity="0.5"/>
</g>
<g filter="url(#filter2_f_903_2294)">
<rect width="78.9635" height="18.8255" transform="matrix(0.957373 0.288856 -0.668863 0.743385 68.0234 212.894)" fill="#D9D9D9" fill-opacity="0.3"/>
</g>
<g filter="url(#filter3_f_903_2294)">
<path d="M69.3827 227.853L76.6852 205.045L144.753 204.422L69.3827 227.853Z" stroke="#8AA4BA" stroke-opacity="0.5"/>
</g>
<g filter="url(#filter4_b_903_2294)">
<path d="M70.0572 232.517C69.3843 232.517 69.2148 232.302 69.2148 232.302C69.2148 232.302 69.58 232.168 69.8183 232.049C70.0566 231.93 70.2238 231.191 70.2238 231.191C70.2238 231.191 70.4501 231.682 70.7299 231.899C70.9652 232.082 71.5442 231.976 71.5442 231.976C71.5442 231.976 70.8831 232.517 70.0572 232.517Z" fill="url(#paint0_linear_903_2294)"/>
<path d="M55.6883 76.9467C55.6893 76.0677 56.2406 75.6361 56.9921 75.9261L67.7009 80.0584C68.6481 80.4239 69.5107 81.7628 69.5147 82.8738L70.0541 230.984C70.0577 231.984 69.3588 232.391 68.4953 231.892L57.0781 225.3C56.2164 224.803 55.5181 223.592 55.5193 222.598L55.6883 76.9467Z" fill="url(#paint1_linear_903_2294)" fill-opacity="0.8" stroke="url(#paint2_linear_903_2294)" stroke-width="0.4"/>
<path d="M69.8666 83.0012C69.8666 81.863 70.7699 80.489 71.7359 80.158L81.4667 76.8233C82.1917 76.5748 82.7133 77.0089 82.7151 77.8621L83.0222 223.289C83.0243 224.284 82.3258 225.496 81.4634 225.994L71.4254 231.789C70.5645 232.286 69.8666 231.883 69.8666 230.889L69.8666 83.0012Z" fill="url(#paint3_angular_903_2294)" fill-opacity="0.8" stroke="url(#paint4_linear_903_2294)" stroke-width="0.4"/>
<path d="M148.311 186.026C149.672 187.39 149.672 189.613 148.311 189.405L72.2488 177.804C71.2312 177.648 70.1517 176.156 70.1517 174.904V110.277C70.1517 109.025 71.2312 108.779 72.2488 109.799L148.311 186.026Z" fill="url(#paint5_radial_903_2294)" fill-opacity="0.8" stroke="url(#paint6_angular_903_2294)" stroke-width="0.4"/>
<rect x="-0.334541" y="-0.0899001" width="11.465" height="109.423" transform="matrix(-0.966113 0.258119 -0.706594 -0.707619 159.88 183.653)" fill="url(#paint7_linear_903_2294)" fill-opacity="0.8" stroke="url(#paint8_linear_903_2294)" stroke-width="0.4"/>
<path d="M81.5222 74.3798C82.8674 74.9929 82.7341 76.1936 81.2644 76.7026L71.1786 80.1954C70.3693 80.4756 69.353 80.4625 68.5662 80.1617L57.3923 75.8895C55.9289 75.33 55.9298 74.0896 57.3939 73.5307L68.0337 69.4694C68.9158 69.1327 70.0725 69.1608 70.9025 69.5391L81.5222 74.3798Z" fill="url(#paint9_linear_903_2294)" fill-opacity="0.8"/>
<path d="M81.3705 74.4908C82.5811 75.0426 82.4611 76.1232 81.1384 76.5813L71.0526 80.0741C70.3242 80.3263 69.4096 80.3145 68.7014 80.0438L57.5276 75.7716C56.2105 75.2681 56.2113 74.1517 57.529 73.6487L68.1688 69.5874C68.9627 69.2843 70.0037 69.3096 70.7507 69.6501L81.3705 74.4908Z" stroke="url(#paint10_angular_903_2294)" stroke-opacity="0.8" stroke-width="0.4"/>
<path d="M70.0105 80.5249C69.3376 80.5249 68.2344 80.177 68.2344 80.177C68.2344 80.177 68.8959 80.7623 69.2534 81.3964C69.611 82.0305 69.6832 83.0355 69.6832 83.0355C69.6832 83.0355 69.8398 82.1642 70.1015 81.5862C70.2535 81.2505 70.5636 80.8292 71.0028 80.3969C71.0457 80.3546 70.8364 80.5249 70.0105 80.5249Z" fill="url(#paint11_linear_903_2294)"/>
<path d="M55.5547 76.3397C55.5901 75.4799 55.9773 74.8965 56.3521 74.4379C56.1181 75.3689 57.0612 75.6401 57.1337 75.7921C56.0346 75.3835 55.6913 76.0285 55.5547 76.3397Z" fill="url(#paint12_linear_903_2294)"/>
<path d="M82.875 77.496C82.8395 76.6362 82.7928 75.7085 82.418 75.2499C82.6172 76.1015 81.7227 76.4648 81.5234 76.6015C82.125 76.3906 82.7109 76.6015 82.875 77.496Z" fill="url(#paint13_linear_903_2294)"/>
<line x1="73.2608" y1="109.93" x2="149.416" y2="186.338" stroke="url(#paint14_linear_903_2294)" stroke-width="0.4"/>
<line x1="69.8934" y1="84.5387" x2="70.5533" y2="231.284" stroke="url(#paint15_linear_903_2294)" stroke-width="0.4"/>
<path d="M68.75 69.9476L57.7549 74.117" stroke="white" stroke-width="0.4"/>
<path d="M160.322 186.102L148.668 189.579C149.067 189.292 149.245 189.058 149.295 188.55C149.349 187.996 149.139 187.336 148.875 186.853L160.414 183.388C160.414 183.388 160.832 184.272 160.832 184.969C160.832 185.509 160.322 186.102 160.322 186.102Z" fill="url(#paint16_linear_903_2294)"/>
<line x1="149.225" y1="186.265" x2="159.948" y2="183.354" stroke="url(#paint17_linear_903_2294)" stroke-width="0.4"/>
<g filter="url(#filter5_f_903_2294)">
<path d="M70.5508 232.517C70.7005 232.503 71.6889 232.354 72.453 231.866C73.2171 231.378 79.8955 227.499 83.1391 225.62" stroke="#393E32" stroke-width="0.2"/>
</g>
</g>
</g>
<defs>
<filter id="filter0_f_903_2294" x="52.5527" y="210.899" width="49.834" height="29.7129" filterUnits="userSpaceOnUse" color-interpolation-filters="sRGB">
<feFlood flood-opacity="0" result="BackgroundImageFix"/>
<feBlend mode="normal" in="SourceGraphic" in2="BackgroundImageFix" result="shape"/>
<feGaussianBlur stdDeviation="2" result="effect1_foregroundBlur_903_2294"/>
</filter>
<filter id="filter1_f_903_2294" x="51.3027" y="213.509" width="40.3398" height="22.915" filterUnits="userSpaceOnUse" color-interpolation-filters="sRGB">
<feFlood flood-opacity="0" result="BackgroundImageFix"/>
<feBlend mode="normal" in="SourceGraphic" in2="BackgroundImageFix" result="shape"/>
<feGaussianBlur stdDeviation="2" result="effect1_foregroundBlur_903_2294"/>
</filter>
<filter id="filter2_f_903_2294" x="45.4316" y="202.894" width="108.189" height="56.8036" filterUnits="userSpaceOnUse" color-interpolation-filters="sRGB">
<feFlood flood-opacity="0" result="BackgroundImageFix"/>
<feBlend mode="normal" in="SourceGraphic" in2="BackgroundImageFix" result="shape"/>
<feGaussianBlur stdDeviation="5" result="effect1_foregroundBlur_903_2294"/>
</filter>
<filter id="filter3_f_903_2294" x="58.6133" y="193.891" width="99.5312" height="44.7244" filterUnits="userSpaceOnUse" color-interpolation-filters="sRGB">
<feFlood flood-opacity="0" result="BackgroundImageFix"/>
<feBlend mode="normal" in="SourceGraphic" in2="BackgroundImageFix" result="shape"/>
<feGaussianBlur stdDeviation="5" result="effect1_foregroundBlur_903_2294"/>
</filter>
<filter id="filter4_b_903_2294" x="51.3457" y="65.2349" width="113.486" height="171.382" filterUnits="userSpaceOnUse" color-interpolation-filters="sRGB">
<feFlood flood-opacity="0" result="BackgroundImageFix"/>
<feGaussianBlur in="BackgroundImageFix" stdDeviation="2"/>
<feComposite in2="SourceAlpha" operator="in" result="effect1_backgroundBlur_903_2294"/>
<feBlend mode="normal" in="SourceGraphic" in2="effect1_backgroundBlur_903_2294" result="shape"/>
</filter>
<filter id="filter5_f_903_2294" x="69.541" y="224.533" width="14.6484" height="9.08295" filterUnits="userSpaceOnUse" color-interpolation-filters="sRGB">
<feFlood flood-opacity="0" result="BackgroundImageFix"/>
<feBlend mode="normal" in="SourceGraphic" in2="BackgroundImageFix" result="shape"/>
<feGaussianBlur stdDeviation="0.5" result="effect1_foregroundBlur_903_2294"/>
</filter>
<linearGradient id="paint0_linear_903_2294" x1="70.4102" y1="234.06" x2="70.4102" y2="231.548" gradientUnits="userSpaceOnUse">
<stop stop-color="#D9D9D9"/>
<stop offset="0.56" stop-color="#ABB2A0"/>
<stop offset="1" stop-color="#C5E4FE"/>
</linearGradient>
<linearGradient id="paint1_linear_903_2294" x1="62.7892" y1="76.641" x2="-3.09655" y2="190.758" gradientUnits="userSpaceOnUse">
<stop stop-color="#F9EEEE"/>
<stop offset="0.15" stop-color="#E0E4D8"/>
<stop offset="0.38" stop-color="#EFF4E7"/>
<stop offset="0.569696" stop-color="#D4E2DF"/>
<stop offset="0.82" stop-color="white"/>
<stop offset="1" stop-color="#E5EDD8"/>
</linearGradient>
<linearGradient id="paint2_linear_903_2294" x1="62.7892" y1="76.641" x2="-3.09655" y2="190.758" gradientUnits="userSpaceOnUse">
<stop stop-color="#9E9E9E"/>
<stop offset="0.13302" stop-color="#BCBCBC"/>
<stop offset="0.545038" stop-color="#7E7E7E"/>
<stop offset="0.741512" stop-color="#CACACA"/>
<stop offset="0.901065" stop-color="#676E5B"/>
<stop offset="1" stop-color="#BDBDBD"/>
</linearGradient>
<radialGradient id="paint3_angular_903_2294" cx="0" cy="0" r="1" gradientUnits="userSpaceOnUse" gradientTransform="translate(79.7025 131.072) rotate(-144.236) scale(16.8029 15.0871)">
<stop stop-color="#A8A8A8"/>
<stop offset="0.136348" stop-color="#E9F2F9"/>
<stop offset="0.235" stop-color="#C1C8B5"/>
<stop offset="0.582414" stop-color="#FADCFF"/>
<stop offset="0.70439" stop-color="#D2DECD"/>
<stop offset="0.785" stop-color="#CAD6E1"/>
<stop offset="1" stop-color="white"/>
</radialGradient>
<linearGradient id="paint4_linear_903_2294" x1="76.5623" y1="76.7535" x2="142.525" y2="191.005" gradientUnits="userSpaceOnUse">
<stop stop-color="#939393"/>
<stop offset="0.880893" stop-color="#E7E7E7"/>
<stop offset="1" stop-color="#666666"/>
</linearGradient>
<radialGradient id="paint5_radial_903_2294" cx="0" cy="0" r="1" gradientUnits="userSpaceOnUse" gradientTransform="translate(155.409 193.968) rotate(-149.002) scale(107.136 68.3108)">
<stop stop-color="white" stop-opacity="0.5"/>
<stop offset="0.292925" stop-color="#9EF646"/>
<stop offset="0.725" stop-color="#D5FA94"/>
<stop offset="1" stop-color="white"/>
</radialGradient>
<radialGradient id="paint6_angular_903_2294" cx="0" cy="0" r="1" gradientUnits="userSpaceOnUse" gradientTransform="translate(111.384 166.396) rotate(-150) scale(55.207 35.18)">
<stop offset="0.0624986" stop-color="#C5FFFB"/>
<stop offset="0.13326" stop-color="#8A8A8A"/>
<stop offset="0.326117" stop-color="#B7FFB3"/>
<stop offset="0.373937" stop-color="#989898"/>
<stop offset="0.611629" stop-color="#7F7D7D"/>
<stop offset="0.825751" stop-color="white"/>
<stop offset="1" stop-color="#242424"/>
</radialGradient>
<linearGradient id="paint7_linear_903_2294" x1="5.93251" y1="109.823" x2="5.93251" y2="0" gradientUnits="userSpaceOnUse">
<stop stop-color="white"/>
<stop offset="0.11" stop-color="#F9EFFA"/>
<stop offset="0.21" stop-color="#E9E9E9" stop-opacity="0.75503"/>
<stop offset="0.325" stop-color="white" stop-opacity="0.402885"/>
<stop offset="0.545" stop-color="#AEFF23" stop-opacity="0.1"/>
<stop offset="0.807165" stop-color="#AEFF23"/>
<stop offset="0.965" stop-color="white" stop-opacity="0.5"/>
</linearGradient>
<linearGradient id="paint8_linear_903_2294" x1="5.93251" y1="109.823" x2="5.93251" y2="0" gradientUnits="userSpaceOnUse">
<stop stop-color="#D3D3D3"/>
<stop offset="0.272976" stop-color="white"/>
<stop offset="0.62" stop-color="#313131"/>
<stop offset="1" stop-color="#E2FFB1"/>
</linearGradient>
<linearGradient id="paint9_linear_903_2294" x1="61.3992" y1="70.6141" x2="69.3062" y2="84.3095" gradientUnits="userSpaceOnUse">
<stop stop-color="#FBFFF4"/>
<stop offset="1" stop-color="#F0F0F0"/>
</linearGradient>
<radialGradient id="paint10_angular_903_2294" cx="0" cy="0" r="1" gradientUnits="userSpaceOnUse" gradientTransform="translate(70.9988 74.5985) rotate(-178.775) scale(15.4146 11.7463)">
<stop stop-color="#C7C7C7"/>
<stop offset="0.25" stop-color="#858585"/>
<stop offset="0.5" stop-color="#D3EAFF"/>
<stop offset="0.75" stop-color="#AEFF23"/>
<stop offset="1" stop-color="white"/>
</radialGradient>
<linearGradient id="paint11_linear_903_2294" x1="69.9141" y1="80.1701" x2="69.9141" y2="82.6823" gradientUnits="userSpaceOnUse">
<stop stop-color="#D9D9D9"/>
<stop offset="0.56" stop-color="#EBFFC8"/>
<stop offset="1" stop-color="#C5E4FE"/>
</linearGradient>
<linearGradient id="paint12_linear_903_2294" x1="56.177" y1="74.3787" x2="56.177" y2="76.2218" gradientUnits="userSpaceOnUse">
<stop stop-color="#DDDDDD"/>
<stop offset="1" stop-color="#AEFF23"/>
</linearGradient>
<linearGradient id="paint13_linear_903_2294" x1="82.6197" y1="75.3971" x2="82.6197" y2="77.2402" gradientUnits="userSpaceOnUse">
<stop stop-color="#DDDDDD"/>
<stop offset="1" stop-color="#AED9FF"/>
</linearGradient>
<linearGradient id="paint14_linear_903_2294" x1="72.765" y1="110.424" x2="148.92" y2="186.832" gradientUnits="userSpaceOnUse">
<stop stop-color="white"/>
<stop offset="0.45" stop-color="#F8FFED"/>
<stop offset="1" stop-color="#EBEDF0"/>
</linearGradient>
<linearGradient id="paint15_linear_903_2294" x1="69.1934" y1="84.5418" x2="69.8533" y2="231.288" gradientUnits="userSpaceOnUse">
<stop stop-color="#999999"/>
<stop offset="0.05" stop-color="#D9D9D9"/>
<stop offset="0.151473" stop-color="#D2E2F0"/>
<stop offset="0.189568" stop-color="white"/>
<stop offset="0.609237" stop-color="#FCFEFF"/>
<stop offset="0.66" stop-color="#848484"/>
<stop offset="0.8" stop-color="#B4BBC1"/>
<stop offset="1"/>
</linearGradient>
<linearGradient id="paint16_linear_903_2294" x1="164.754" y1="186.474" x2="148.707" y2="186.474" gradientUnits="userSpaceOnUse">
<stop offset="0.53" stop-color="#E0EAF4"/>
<stop offset="1" stop-color="#A5A7A0"/>
</linearGradient>
<linearGradient id="paint17_linear_903_2294" x1="160.131" y1="184.03" x2="149.408" y2="186.941" gradientUnits="userSpaceOnUse">
<stop stop-color="#BAD6EF"/>
<stop offset="0.47" stop-color="#B9C0AE"/>
<stop offset="1" stop-color="#3D3A3A"/>
</linearGradient>
<clipPath id="clip0_903_2294">
<rect y="0.5" width="320" height="300" rx="30" fill="white"/>
</clipPath>
</defs>
</svg>
