<svg width="16" height="16" viewBox="0 0 16 16" fill="none" xmlns="http://www.w3.org/2000/svg">
<path fill-rule="evenodd" clip-rule="evenodd" d="M7.99935 2.13135C9.13332 2.13144 10.2208 2.54957 11.0227 3.29378C11.8246 4.03802 12.2751 5.04742 12.2751 6.09994L12.2755 9.40845C12.2755 9.49325 12.2978 9.57656 12.3402 9.65L13.2672 11.2556C13.4532 11.5777 13.2208 11.9802 12.8489 11.9802H11.1278C10.9596 12.352 10.709 12.6937 10.3862 12.9828C9.75305 13.55 8.89434 13.8686 7.99896 13.8686C7.10359 13.8686 6.24488 13.55 5.61175 12.9828C5.28898 12.6937 5.03831 12.352 4.87012 11.9802H3.14983C2.77794 11.9802 2.54551 11.5777 2.73146 11.2556L3.65845 9.65C3.70086 9.57656 3.72318 9.49325 3.72318 9.40845V6.10033L3.72304 6.05778C3.72755 5.66432 3.79498 5.27731 3.92012 4.9084C4.12489 4.30475 4.48419 3.74954 4.97525 3.29378C5.77719 2.54949 6.86524 2.13135 7.99935 2.13135ZM6.41932 11.9802C6.46519 12.0314 6.51434 12.0806 6.56664 12.1274C6.94651 12.4677 7.46174 12.6589 7.99896 12.6589C8.53619 12.6589 9.05141 12.4677 9.43129 12.1274C9.48359 12.0806 9.53274 12.0314 9.57861 11.9802H6.41932ZM4.93092 6.10033L4.93066 6.0751L7.99935 3.33909C8.84087 3.33919 9.63145 3.65033 10.2011 4.17901C10.7677 4.70492 11.0674 5.39808 11.0674 6.1C11.0674 6.11027 11.0675 6.12051 11.0678 6.13071V9.40845C11.0678 9.70525 11.1459 9.99683 11.2943 10.2539L11.5937 10.7725H4.40496L4.70439 10.2539C4.85279 9.99683 4.93092 9.70525 4.93092 9.40845V6.10033ZM4.93066 6.0751L7.99935 3.33909C7.15768 3.33909 6.36656 3.65024 5.79685 4.17901C5.23691 4.6987 4.9377 5.38171 4.93066 6.0751Z" fill="#7423FF"/>
</svg>
