<svg width="320" height="301" viewBox="0 0 320 301" fill="none" xmlns="http://www.w3.org/2000/svg">
<g clip-path="url(#clip0_903_2327)">
<rect y="0.5" width="320" height="300" rx="4" fill="#FAFAFA"/>
<g filter="url(#filter0_f_903_2327)">
<ellipse cx="34.0614" cy="217.093" rx="3.5229" ry="4.5892" transform="rotate(-24.5306 34.0614 217.093)" fill="#FFE223"/>
</g>
<g filter="url(#filter1_f_903_2327)">
<ellipse cx="285.338" cy="153.729" rx="6.53313" ry="3.54693" transform="rotate(39.7561 285.338 153.729)" fill="#007AFF" fill-opacity="0.4"/>
</g>
<g filter="url(#filter2_f_903_2327)">
<ellipse cx="256.899" cy="24.0585" rx="6.75913" ry="7.94011" transform="rotate(4.60048 256.899 24.0585)" fill="#FEE548"/>
</g>
<g filter="url(#filter3_f_903_2327)">
<ellipse cx="192.756" cy="77.9864" rx="3.58989" ry="4.67648" transform="rotate(36.4307 192.756 77.9864)" fill="#7BFF60"/>
</g>
<g filter="url(#filter4_f_903_2327)">
<ellipse cx="131.223" cy="283.077" rx="5.94333" ry="5.96423" transform="rotate(-24.4494 131.223 283.077)" fill="#7423FF" fill-opacity="0.2"/>
</g>
<g filter="url(#filter5_f_903_2327)">
<ellipse cx="26.5556" cy="32.5152" rx="6.13414" ry="9.60983" transform="rotate(-18.0167 26.5556 32.5152)" fill="#007AFF" fill-opacity="0.6"/>
</g>
<g filter="url(#filter6_f_903_2327)">
<ellipse cx="164.034" cy="205.086" rx="72.6921" ry="32.7314" fill="#EEEEEE"/>
</g>
<g filter="url(#filter7_f_903_2327)">
<ellipse cx="227.966" cy="253.341" rx="91.9599" ry="32.7314" fill="#EEEEEE"/>
</g>
<g filter="url(#filter8_bdii_903_2327)">
<path d="M95.1678 193.463C90.8824 193.463 87.181 190.465 86.2906 186.273L82.5149 168.498C82.5004 168.429 82.4401 168.38 82.3703 168.38C82.3005 168.38 82.2402 168.429 82.2257 168.498L78.4499 186.273C77.5595 190.465 73.8582 193.463 69.5728 193.463C65.3573 193.463 61.6969 190.56 60.7364 186.456L54.6414 160.41C53.6689 156.254 56.8227 152.277 61.0905 152.277C64.2416 152.277 66.9564 154.497 67.582 157.586L71.2121 175.507C71.2259 175.575 71.2858 175.624 71.3554 175.624C71.4251 175.624 71.4851 175.575 71.4988 175.506L74.8569 158.716C75.6056 154.972 78.8927 152.277 82.7106 152.277C86.4914 152.277 89.7573 154.921 90.5443 158.619L94.1386 175.508C94.153 175.576 94.2126 175.624 94.2816 175.624C94.3518 175.624 94.4122 175.574 94.4253 175.505L97.8594 157.406C98.4239 154.431 101.024 152.277 104.053 152.277C108.115 152.277 111.117 156.063 110.191 160.018L104.004 186.456C103.044 190.56 99.3832 193.463 95.1678 193.463Z" fill="url(#paint0_linear_903_2327)" fill-opacity="0.8" shape-rendering="crispEdges"/>
</g>
<g filter="url(#filter9_bdii_903_2327)">
<path d="M162.357 159.67C161.841 155.587 164.734 151.86 168.817 151.345C172.9 150.83 176.627 153.722 177.142 157.805L179.28 174.746C179.971 180.225 184.973 184.107 190.453 183.416L198.261 182.43C201.513 182.02 204.481 184.324 204.892 187.575C205.302 190.827 202.998 193.795 199.747 194.206L177.152 197.056C171.673 197.747 166.671 193.866 165.979 188.386L162.357 159.67Z" fill="url(#paint1_linear_903_2327)" fill-opacity="0.8" shape-rendering="crispEdges"/>
</g>
<g filter="url(#filter10_bdii_903_2327)">
<path d="M119.94 154.385C121.918 149.228 127.702 146.652 132.858 148.63L155.789 157.427C158.658 158.527 160.091 161.745 158.991 164.614C157.89 167.483 154.672 168.916 151.804 167.815L136.441 161.922C134.79 161.288 132.937 162.114 132.303 163.765C131.67 165.417 132.495 167.27 134.147 167.903L146.33 172.577C149.077 173.631 150.449 176.712 149.395 179.459C148.342 182.206 145.26 183.579 142.513 182.525L130.645 177.972C128.82 177.272 126.772 178.184 126.072 180.009C125.371 181.835 126.284 183.883 128.109 184.583L143.598 190.525C146.466 191.625 147.9 194.843 146.799 197.712C145.699 200.58 142.481 202.014 139.612 200.913L116.24 191.947C111.084 189.969 108.507 184.185 110.486 179.029L119.94 154.385Z" fill="url(#paint2_linear_903_2327)" fill-opacity="0.8" shape-rendering="crispEdges"/>
</g>
<g filter="url(#filter11_ii_903_2327)">
<path d="M236.493 223.519C234.889 218.234 237.872 212.649 243.157 211.045L264.555 204.548C267.308 203.712 270.218 205.266 271.053 208.019C271.889 210.772 270.335 213.682 267.582 214.518L252.839 218.994C251.254 219.475 250.359 221.15 250.84 222.736C251.321 224.321 252.996 225.216 254.582 224.734L266.273 221.184C268.91 220.384 271.696 221.872 272.496 224.509C273.297 227.145 271.808 229.931 269.172 230.731L257.782 234.19C256.03 234.721 255.041 236.573 255.573 238.325C256.105 240.077 257.957 241.066 259.709 240.534L274.573 236.021C277.326 235.185 280.235 236.739 281.071 239.492C281.907 242.246 280.353 245.155 277.6 245.991L255.778 252.616C250.494 254.221 244.909 251.237 243.304 245.953L236.493 223.519Z" fill="url(#paint3_linear_903_2327)" fill-opacity="0.8"/>
</g>
<g filter="url(#filter12_ii_903_2327)">
<path d="M102.51 210.528C108.263 208.179 113.405 207.769 117.934 209.299C120.622 210.187 122.896 211.758 124.756 214.011C127.017 216.748 125.31 220.635 122.023 221.976L121.863 222.042C118.665 223.347 115.201 221.263 112.079 219.784C110.376 218.943 108.434 218.968 106.253 219.859C103.733 220.887 102.194 222.437 101.635 224.508C101.114 226.563 101.429 229.001 102.581 231.822L104.055 235.432C105.191 238.215 106.672 240.177 108.498 241.318C110.346 242.406 112.492 242.451 114.937 241.454C117.343 240.471 118.914 239.106 119.648 237.358C120.97 234.214 121.946 230.3 125.104 229.011C128.282 227.714 132.1 229.233 132.436 232.649C132.726 235.591 132.228 238.322 130.942 240.843C128.86 244.983 124.847 248.267 118.905 250.692C112.287 253.394 106.575 253.751 101.771 251.764C97.005 249.761 93.2709 245.45 90.569 238.831C87.8671 232.212 87.5176 226.52 89.5205 221.753C91.5611 216.972 95.8908 213.23 102.51 210.528Z" fill="url(#paint4_linear_903_2327)" fill-opacity="0.8"/>
</g>
<g filter="url(#filter13_ii_903_2327)">
<path d="M155.006 206.581C163.021 205.408 169.511 206.551 174.477 210.01C179.444 213.468 182.5 219.114 183.646 226.948C184.792 234.782 183.481 241.067 179.713 245.803C175.945 250.539 170.054 253.493 162.04 254.665C154.026 255.837 147.539 254.717 142.579 251.304C137.657 247.839 134.62 242.167 133.468 234.288C132.315 226.409 133.604 220.127 137.333 215.443C141.101 210.707 146.992 207.753 155.006 206.581ZM156.636 217.724C153.44 218.191 151.15 219.515 149.767 221.695C148.385 223.874 147.934 226.607 148.415 229.894L149.047 234.216C149.528 237.503 150.742 239.993 152.691 241.685C154.64 243.377 157.213 243.99 160.41 243.522C163.607 243.054 165.896 241.731 167.279 239.551C168.707 237.365 169.18 234.628 168.699 231.342L168.067 227.02C167.586 223.733 166.349 221.247 164.355 219.561C162.406 217.869 159.833 217.256 156.636 217.724Z" fill="#AEFF23" fill-opacity="0.8"/>
</g>
<g filter="url(#filter14_ii_903_2327)">
<path d="M225.895 250.272C222.324 249.969 219.674 246.828 219.977 243.257L220.676 235.02C220.831 233.202 221.047 231.35 221.327 229.462C221.649 227.539 221.944 225.932 222.212 224.641C222.45 223.496 222.609 222.72 222.691 222.314C222.706 222.24 222.653 222.17 222.578 222.164C222.521 222.159 222.469 222.193 222.449 222.246L214.396 244.324C213.358 247.171 210.541 248.969 207.522 248.713C204.509 248.457 202.039 246.218 201.489 243.245L197.219 220.164C197.209 220.109 197.162 220.066 197.106 220.062C197.031 220.055 196.967 220.115 196.969 220.19C196.981 220.605 197.008 221.396 197.049 222.565C197.139 223.846 197.18 225.462 197.173 227.412C197.169 229.323 197.09 231.187 196.936 233.005L196.197 241.714C195.916 245.025 193.004 247.48 189.694 247.199C186.384 246.918 183.928 244.007 184.209 240.697L186.316 215.866C186.783 210.363 191.623 206.28 197.126 206.747L197.89 206.812C202.424 207.197 206.126 210.594 206.899 215.079L209.711 231.407C209.723 231.476 209.78 231.528 209.849 231.534C209.919 231.539 209.984 231.498 210.007 231.432L215.483 215.83C216.993 211.528 221.263 208.796 225.806 209.182C231.309 209.649 235.445 214.493 234.978 219.996L232.91 244.355C232.607 247.926 229.466 250.575 225.895 250.272Z" fill="url(#paint5_linear_903_2327)" fill-opacity="0.8"/>
</g>
<g filter="url(#filter15_f_903_2327)">
<ellipse cx="43.75" cy="65.2753" rx="120.314" ry="115.671" fill="white" fill-opacity="0.5"/>
</g>
</g>
<defs>
<filter id="filter0_f_903_2327" x="20.332" y="202.668" width="27.459" height="28.85" filterUnits="userSpaceOnUse" color-interpolation-filters="sRGB">
<feFlood flood-opacity="0" result="BackgroundImageFix"/>
<feBlend mode="normal" in="SourceGraphic" in2="BackgroundImageFix" result="shape"/>
<feGaussianBlur stdDeviation="5" result="effect1_foregroundBlur_903_2327"/>
</filter>
<filter id="filter1_f_903_2327" x="269.826" y="138.739" width="31.0234" height="29.9795" filterUnits="userSpaceOnUse" color-interpolation-filters="sRGB">
<feFlood flood-opacity="0" result="BackgroundImageFix"/>
<feBlend mode="normal" in="SourceGraphic" in2="BackgroundImageFix" result="shape"/>
<feGaussianBlur stdDeviation="5" result="effect1_foregroundBlur_903_2327"/>
</filter>
<filter id="filter2_f_903_2327" x="230.131" y="-3.87488" width="53.5371" height="55.8668" filterUnits="userSpaceOnUse" color-interpolation-filters="sRGB">
<feFlood flood-opacity="0" result="BackgroundImageFix"/>
<feBlend mode="normal" in="SourceGraphic" in2="BackgroundImageFix" result="shape"/>
<feGaussianBlur stdDeviation="10" result="effect1_foregroundBlur_903_2327"/>
</filter>
<filter id="filter3_f_903_2327" x="178.748" y="63.661" width="28.0137" height="28.6506" filterUnits="userSpaceOnUse" color-interpolation-filters="sRGB">
<feFlood flood-opacity="0" result="BackgroundImageFix"/>
<feBlend mode="normal" in="SourceGraphic" in2="BackgroundImageFix" result="shape"/>
<feGaussianBlur stdDeviation="5" result="effect1_foregroundBlur_903_2327"/>
</filter>
<filter id="filter4_f_903_2327" x="115.273" y="267.115" width="31.8984" height="31.9243" filterUnits="userSpaceOnUse" color-interpolation-filters="sRGB">
<feFlood flood-opacity="0" result="BackgroundImageFix"/>
<feBlend mode="normal" in="SourceGraphic" in2="BackgroundImageFix" result="shape"/>
<feGaussianBlur stdDeviation="5" result="effect1_foregroundBlur_903_2327"/>
</filter>
<filter id="filter5_f_903_2327" x="-9.99219" y="-6.82019" width="73.0957" height="78.6707" filterUnits="userSpaceOnUse" color-interpolation-filters="sRGB">
<feFlood flood-opacity="0" result="BackgroundImageFix"/>
<feBlend mode="normal" in="SourceGraphic" in2="BackgroundImageFix" result="shape"/>
<feGaussianBlur stdDeviation="15" result="effect1_foregroundBlur_903_2327"/>
</filter>
<filter id="filter6_f_903_2327" x="51.3418" y="132.355" width="225.385" height="145.463" filterUnits="userSpaceOnUse" color-interpolation-filters="sRGB">
<feFlood flood-opacity="0" result="BackgroundImageFix"/>
<feBlend mode="normal" in="SourceGraphic" in2="BackgroundImageFix" result="shape"/>
<feGaussianBlur stdDeviation="20" result="effect1_foregroundBlur_903_2327"/>
</filter>
<filter id="filter7_f_903_2327" x="106.006" y="190.61" width="243.92" height="125.463" filterUnits="userSpaceOnUse" color-interpolation-filters="sRGB">
<feFlood flood-opacity="0" result="BackgroundImageFix"/>
<feBlend mode="normal" in="SourceGraphic" in2="BackgroundImageFix" result="shape"/>
<feGaussianBlur stdDeviation="15" result="effect1_foregroundBlur_903_2327"/>
</filter>
<filter id="filter8_bdii_903_2327" x="50.4648" y="148.277" width="64.8945" height="49.1855" filterUnits="userSpaceOnUse" color-interpolation-filters="sRGB">
<feFlood flood-opacity="0" result="BackgroundImageFix"/>
<feGaussianBlur in="BackgroundImageFix" stdDeviation="2"/>
<feComposite in2="SourceAlpha" operator="in" result="effect1_backgroundBlur_903_2327"/>
<feColorMatrix in="SourceAlpha" type="matrix" values="0 0 0 0 0 0 0 0 0 0 0 0 0 0 0 0 0 0 127 0" result="hardAlpha"/>
<feOffset/>
<feGaussianBlur stdDeviation="2"/>
<feComposite in2="hardAlpha" operator="out"/>
<feColorMatrix type="matrix" values="0 0 0 0 0 0 0 0 0 0 0 0 0 0 0 0 0 0 0.1 0"/>
<feBlend mode="normal" in2="effect1_backgroundBlur_903_2327" result="effect2_dropShadow_903_2327"/>
<feBlend mode="normal" in="SourceGraphic" in2="effect2_dropShadow_903_2327" result="shape"/>
<feColorMatrix in="SourceAlpha" type="matrix" values="0 0 0 0 0 0 0 0 0 0 0 0 0 0 0 0 0 0 127 0" result="hardAlpha"/>
<feOffset dx="-1" dy="-2"/>
<feGaussianBlur stdDeviation="5"/>
<feComposite in2="hardAlpha" operator="arithmetic" k2="-1" k3="1"/>
<feColorMatrix type="matrix" values="0 0 0 0 0 0 0 0 0 0 0 0 0 0 0 0 0 0 0.15 0"/>
<feBlend mode="normal" in2="shape" result="effect3_innerShadow_903_2327"/>
<feColorMatrix in="SourceAlpha" type="matrix" values="0 0 0 0 0 0 0 0 0 0 0 0 0 0 0 0 0 0 127 0" result="hardAlpha"/>
<feOffset dx="5" dy="3"/>
<feGaussianBlur stdDeviation="4.2"/>
<feComposite in2="hardAlpha" operator="arithmetic" k2="-1" k3="1"/>
<feColorMatrix type="matrix" values="0 0 0 0 1 0 0 0 0 1 0 0 0 0 1 0 0 0 0.25 0"/>
<feBlend mode="normal" in2="effect3_innerShadow_903_2327" result="effect4_innerShadow_903_2327"/>
</filter>
<filter id="filter9_bdii_903_2327" x="152.297" y="141.285" width="62.6426" height="65.8506" filterUnits="userSpaceOnUse" color-interpolation-filters="sRGB">
<feFlood flood-opacity="0" result="BackgroundImageFix"/>
<feGaussianBlur in="BackgroundImageFix" stdDeviation="2"/>
<feComposite in2="SourceAlpha" operator="in" result="effect1_backgroundBlur_903_2327"/>
<feColorMatrix in="SourceAlpha" type="matrix" values="0 0 0 0 0 0 0 0 0 0 0 0 0 0 0 0 0 0 127 0" result="hardAlpha"/>
<feOffset/>
<feGaussianBlur stdDeviation="5"/>
<feComposite in2="hardAlpha" operator="out"/>
<feColorMatrix type="matrix" values="0 0 0 0 0 0 0 0 0 0 0 0 0 0 0 0 0 0 0.1 0"/>
<feBlend mode="normal" in2="effect1_backgroundBlur_903_2327" result="effect2_dropShadow_903_2327"/>
<feBlend mode="normal" in="SourceGraphic" in2="effect2_dropShadow_903_2327" result="shape"/>
<feColorMatrix in="SourceAlpha" type="matrix" values="0 0 0 0 0 0 0 0 0 0 0 0 0 0 0 0 0 0 127 0" result="hardAlpha"/>
<feOffset dx="-2" dy="-2"/>
<feGaussianBlur stdDeviation="5"/>
<feComposite in2="hardAlpha" operator="arithmetic" k2="-1" k3="1"/>
<feColorMatrix type="matrix" values="0 0 0 0 0 0 0 0 0 0 0 0 0 0 0 0 0 0 0.15 0"/>
<feBlend mode="normal" in2="shape" result="effect3_innerShadow_903_2327"/>
<feColorMatrix in="SourceAlpha" type="matrix" values="0 0 0 0 0 0 0 0 0 0 0 0 0 0 0 0 0 0 127 0" result="hardAlpha"/>
<feOffset dx="5" dy="4"/>
<feGaussianBlur stdDeviation="2"/>
<feComposite in2="hardAlpha" operator="arithmetic" k2="-1" k3="1"/>
<feColorMatrix type="matrix" values="0 0 0 0 1 0 0 0 0 1 0 0 0 0 1 0 0 0 0.25 0"/>
<feBlend mode="normal" in2="effect3_innerShadow_903_2327" result="effect4_innerShadow_903_2327"/>
</filter>
<filter id="filter10_bdii_903_2327" x="99.8203" y="137.964" width="69.541" height="73.3199" filterUnits="userSpaceOnUse" color-interpolation-filters="sRGB">
<feFlood flood-opacity="0" result="BackgroundImageFix"/>
<feGaussianBlur in="BackgroundImageFix" stdDeviation="2"/>
<feComposite in2="SourceAlpha" operator="in" result="effect1_backgroundBlur_903_2327"/>
<feColorMatrix in="SourceAlpha" type="matrix" values="0 0 0 0 0 0 0 0 0 0 0 0 0 0 0 0 0 0 127 0" result="hardAlpha"/>
<feOffset/>
<feGaussianBlur stdDeviation="5"/>
<feComposite in2="hardAlpha" operator="out"/>
<feColorMatrix type="matrix" values="0 0 0 0 0 0 0 0 0 0 0 0 0 0 0 0 0 0 0.05 0"/>
<feBlend mode="normal" in2="effect1_backgroundBlur_903_2327" result="effect2_dropShadow_903_2327"/>
<feBlend mode="normal" in="SourceGraphic" in2="effect2_dropShadow_903_2327" result="shape"/>
<feColorMatrix in="SourceAlpha" type="matrix" values="0 0 0 0 0 0 0 0 0 0 0 0 0 0 0 0 0 0 127 0" result="hardAlpha"/>
<feOffset dx="-2" dy="-2"/>
<feGaussianBlur stdDeviation="5"/>
<feComposite in2="hardAlpha" operator="arithmetic" k2="-1" k3="1"/>
<feColorMatrix type="matrix" values="0 0 0 0 0 0 0 0 0 0 0 0 0 0 0 0 0 0 0.15 0"/>
<feBlend mode="normal" in2="shape" result="effect3_innerShadow_903_2327"/>
<feColorMatrix in="SourceAlpha" type="matrix" values="0 0 0 0 0 0 0 0 0 0 0 0 0 0 0 0 0 0 127 0" result="hardAlpha"/>
<feOffset dx="2" dy="4"/>
<feGaussianBlur stdDeviation="2"/>
<feComposite in2="hardAlpha" operator="arithmetic" k2="-1" k3="1"/>
<feColorMatrix type="matrix" values="0 0 0 0 1 0 0 0 0 1 0 0 0 0 1 0 0 0 0.25 0"/>
<feBlend mode="normal" in2="effect3_innerShadow_903_2327" result="effect4_innerShadow_903_2327"/>
</filter>
<filter id="filter11_ii_903_2327" x="235.059" y="202.322" width="49.2383" height="55.5285" filterUnits="userSpaceOnUse" color-interpolation-filters="sRGB">
<feFlood flood-opacity="0" result="BackgroundImageFix"/>
<feBlend mode="normal" in="SourceGraphic" in2="BackgroundImageFix" result="shape"/>
<feColorMatrix in="SourceAlpha" type="matrix" values="0 0 0 0 0 0 0 0 0 0 0 0 0 0 0 0 0 0 127 0" result="hardAlpha"/>
<feOffset dx="3" dy="5"/>
<feGaussianBlur stdDeviation="2.4"/>
<feComposite in2="hardAlpha" operator="arithmetic" k2="-1" k3="1"/>
<feColorMatrix type="matrix" values="0 0 0 0 1 0 0 0 0 1 0 0 0 0 1 0 0 0 0.25 0"/>
<feBlend mode="normal" in2="shape" result="effect1_innerShadow_903_2327"/>
<feColorMatrix in="SourceAlpha" type="matrix" values="0 0 0 0 0 0 0 0 0 0 0 0 0 0 0 0 0 0 127 0" result="hardAlpha"/>
<feOffset dx="-1" dy="-2"/>
<feGaussianBlur stdDeviation="5"/>
<feComposite in2="hardAlpha" operator="arithmetic" k2="-1" k3="1"/>
<feColorMatrix type="matrix" values="0 0 0 0 0 0 0 0 0 0 0 0 0 0 0 0 0 0 0.25 0"/>
<feBlend mode="normal" in2="effect1_innerShadow_903_2327" result="effect2_innerShadow_903_2327"/>
</filter>
<filter id="filter12_ii_903_2327" x="86.2422" y="205.394" width="49.2734" height="52.4331" filterUnits="userSpaceOnUse" color-interpolation-filters="sRGB">
<feFlood flood-opacity="0" result="BackgroundImageFix"/>
<feBlend mode="normal" in="SourceGraphic" in2="BackgroundImageFix" result="shape"/>
<feColorMatrix in="SourceAlpha" type="matrix" values="0 0 0 0 0 0 0 0 0 0 0 0 0 0 0 0 0 0 127 0" result="hardAlpha"/>
<feOffset dx="3" dy="5"/>
<feGaussianBlur stdDeviation="2.4"/>
<feComposite in2="hardAlpha" operator="arithmetic" k2="-1" k3="1"/>
<feColorMatrix type="matrix" values="0 0 0 0 1 0 0 0 0 1 0 0 0 0 1 0 0 0 0.25 0"/>
<feBlend mode="normal" in2="shape" result="effect1_innerShadow_903_2327"/>
<feColorMatrix in="SourceAlpha" type="matrix" values="0 0 0 0 0 0 0 0 0 0 0 0 0 0 0 0 0 0 127 0" result="hardAlpha"/>
<feOffset dx="-2" dy="-3"/>
<feGaussianBlur stdDeviation="5"/>
<feComposite in2="hardAlpha" operator="arithmetic" k2="-1" k3="1"/>
<feColorMatrix type="matrix" values="0 0 0 0 0 0 0 0 0 0 0 0 0 0 0 0 0 0 0.25 0"/>
<feBlend mode="normal" in2="effect1_innerShadow_903_2327" result="effect2_innerShadow_903_2327"/>
</filter>
<filter id="filter13_ii_903_2327" x="133.061" y="202.135" width="53.9863" height="57.7792" filterUnits="userSpaceOnUse" color-interpolation-filters="sRGB">
<feFlood flood-opacity="0" result="BackgroundImageFix"/>
<feBlend mode="normal" in="SourceGraphic" in2="BackgroundImageFix" result="shape"/>
<feColorMatrix in="SourceAlpha" type="matrix" values="0 0 0 0 0 0 0 0 0 0 0 0 0 0 0 0 0 0 127 0" result="hardAlpha"/>
<feOffset dx="3" dy="5"/>
<feGaussianBlur stdDeviation="2.4"/>
<feComposite in2="hardAlpha" operator="arithmetic" k2="-1" k3="1"/>
<feColorMatrix type="matrix" values="0 0 0 0 1 0 0 0 0 1 0 0 0 0 1 0 0 0 0.25 0"/>
<feBlend mode="normal" in2="shape" result="effect1_innerShadow_903_2327"/>
<feColorMatrix in="SourceAlpha" type="matrix" values="0 0 0 0 0 0 0 0 0 0 0 0 0 0 0 0 0 0 127 0" result="hardAlpha"/>
<feOffset dy="-4"/>
<feGaussianBlur stdDeviation="5"/>
<feComposite in2="hardAlpha" operator="arithmetic" k2="-1" k3="1"/>
<feColorMatrix type="matrix" values="0 0 0 0 0 0 0 0 0 0 0 0 0 0 0 0 0 0 0.25 0"/>
<feBlend mode="normal" in2="effect1_innerShadow_903_2327" result="effect2_innerShadow_903_2327"/>
</filter>
<filter id="filter14_ii_903_2327" x="180.188" y="203.711" width="57.8262" height="51.385" filterUnits="userSpaceOnUse" color-interpolation-filters="sRGB">
<feFlood flood-opacity="0" result="BackgroundImageFix"/>
<feBlend mode="normal" in="SourceGraphic" in2="BackgroundImageFix" result="shape"/>
<feColorMatrix in="SourceAlpha" type="matrix" values="0 0 0 0 0 0 0 0 0 0 0 0 0 0 0 0 0 0 127 0" result="hardAlpha"/>
<feOffset dx="3" dy="5"/>
<feGaussianBlur stdDeviation="2.4"/>
<feComposite in2="hardAlpha" operator="arithmetic" k2="-1" k3="1"/>
<feColorMatrix type="matrix" values="0 0 0 0 1 0 0 0 0 1 0 0 0 0 1 0 0 0 0.25 0"/>
<feBlend mode="normal" in2="shape" result="effect1_innerShadow_903_2327"/>
<feColorMatrix in="SourceAlpha" type="matrix" values="0 0 0 0 0 0 0 0 0 0 0 0 0 0 0 0 0 0 127 0" result="hardAlpha"/>
<feOffset dx="-4" dy="-3"/>
<feGaussianBlur stdDeviation="5"/>
<feComposite in2="hardAlpha" operator="arithmetic" k2="-1" k3="1"/>
<feColorMatrix type="matrix" values="0 0 0 0 0 0 0 0 0 0 0 0 0 0 0 0 0 0 0.25 0"/>
<feBlend mode="normal" in2="effect1_innerShadow_903_2327" result="effect2_innerShadow_903_2327"/>
</filter>
<filter id="filter15_f_903_2327" x="-116.564" y="-90.3956" width="320.629" height="311.342" filterUnits="userSpaceOnUse" color-interpolation-filters="sRGB">
<feFlood flood-opacity="0" result="BackgroundImageFix"/>
<feBlend mode="normal" in="SourceGraphic" in2="BackgroundImageFix" result="shape"/>
<feGaussianBlur stdDeviation="20" result="effect1_foregroundBlur_903_2327"/>
</filter>
<linearGradient id="paint0_linear_903_2327" x1="78.3175" y1="193.463" x2="87.8762" y2="147.894" gradientUnits="userSpaceOnUse">
<stop stop-color="#7423FF" stop-opacity="0.8"/>
<stop offset="1" stop-color="white"/>
</linearGradient>
<linearGradient id="paint1_linear_903_2327" x1="165.634" y1="154.04" x2="201.892" y2="193.935" gradientUnits="userSpaceOnUse">
<stop stop-color="#AEFF23"/>
<stop offset="1" stop-color="#40FF23"/>
</linearGradient>
<linearGradient id="paint2_linear_903_2327" x1="138.219" y1="173.977" x2="123.243" y2="151.911" gradientUnits="userSpaceOnUse">
<stop stop-color="#FFE223" stop-opacity="0.8"/>
<stop offset="1" stop-color="white"/>
</linearGradient>
<linearGradient id="paint3_linear_903_2327" x1="251.775" y1="208.428" x2="263.496" y2="285.368" gradientUnits="userSpaceOnUse">
<stop stop-color="#AEFF23"/>
<stop offset="1" stop-color="#00F90C"/>
</linearGradient>
<linearGradient id="paint4_linear_903_2327" x1="128.615" y1="233.836" x2="96.0863" y2="209.748" gradientUnits="userSpaceOnUse">
<stop stop-color="#289BFF"/>
<stop offset="1" stop-color="#F0F0F0"/>
</linearGradient>
<linearGradient id="paint5_linear_903_2327" x1="211.493" y1="207.967" x2="215.907" y2="293.443" gradientUnits="userSpaceOnUse">
<stop stop-color="#34C759"/>
<stop offset="1" stop-color="#19612B"/>
</linearGradient>
<clipPath id="clip0_903_2327">
<rect y="0.5" width="320" height="300" rx="10" fill="white"/>
</clipPath>
</defs>
</svg>
