<svg width="24" height="25" viewBox="0 0 24 25" fill="none" xmlns="http://www.w3.org/2000/svg">
<path fill-rule="evenodd" clip-rule="evenodd" d="M13.0267 2.72648C12.5748 2.33271 11.9017 2.33271 11.4499 2.72648L3.25881 9.86483C3.12545 9.98104 3.02647 10.1137 2.95879 10.2546C2.60474 10.4633 2.36719 10.8485 2.36719 11.2892V21.369C2.36719 22.0317 2.90445 22.569 3.56719 22.569H9.16719C9.82993 22.569 10.3672 22.0317 10.3672 21.369V17.3579H13.6328V21.369C13.6328 22.0317 14.1701 22.569 14.8328 22.569H20.4328C21.0956 22.569 21.6328 22.0317 21.6328 21.369V11.3576C21.6328 11.2537 21.6196 11.1529 21.5948 11.0567C21.6965 10.6512 21.5938 10.1926 21.2178 9.86482L13.0267 2.72648Z" fill="#424242"/>
</svg>
