<svg width="24" height="24" viewBox="0 0 24 24" fill="none" xmlns="http://www.w3.org/2000/svg">
<path fill-rule="evenodd" clip-rule="evenodd" d="M13.0267 2.22697C12.5748 1.8332 11.9017 1.8332 11.4499 2.22697L3.25881 9.36531C3.12545 9.48153 3.02647 9.61421 2.95879 9.75513C2.60474 9.96379 2.36719 10.349 2.36719 10.7897V20.8695C2.36719 21.5322 2.90445 22.0695 3.56719 22.0695H9.16719C9.82993 22.0695 10.3672 21.5322 10.3672 20.8695V16.8584H13.6328V20.8695C13.6328 21.5322 14.1701 22.0695 14.8328 22.0695H20.4328C21.0956 22.0695 21.6328 21.5322 21.6328 20.8695V10.8581C21.6328 10.7542 21.6196 10.6534 21.5948 10.5572C21.6965 10.1517 21.5938 9.69306 21.2178 9.36531L13.0267 2.22697Z" fill="#BDBDBD"/>
</svg>
