<svg width="178" height="79" viewBox="0 0 178 79" fill="none" xmlns="http://www.w3.org/2000/svg">
<path d="M65.7188 14.3672H67.8125V15.4141H65.7188V19.0391H64.5V10.6641H65.7188V14.3672Z" fill="#212121"/>
<path fill-rule="evenodd" clip-rule="evenodd" d="M65.7188 24.3672H56.9531V19.8359H65.7188V24.3672ZM58.1562 23.3672H64.5V20.8203H58.1562V23.3672Z" fill="#212121"/>
<path d="M63.1719 13.1641H54.8906V12.1484H58.4219V10.5547H59.6406V12.1484H63.1719V13.1641Z" fill="#212121"/>
<path fill-rule="evenodd" clip-rule="evenodd" d="M59.0312 13.8516C59.6927 13.8516 60.2734 13.9557 60.7734 14.1641C61.2786 14.3672 61.6693 14.6562 61.9453 15.0312C62.2266 15.401 62.3698 15.8307 62.375 16.3203C62.3698 16.8203 62.2266 17.2578 61.9453 17.6328C61.6693 18.0078 61.2786 18.2969 60.7734 18.5C60.2734 18.7031 59.6927 18.8047 59.0312 18.8047C58.3646 18.8047 57.776 18.7031 57.2656 18.5C56.7604 18.2969 56.3698 18.0078 56.0938 17.6328C55.8177 17.2578 55.6823 16.8203 55.6875 16.3203C55.6823 15.8307 55.8177 15.401 56.0938 15.0312C56.3698 14.6562 56.7604 14.3672 57.2656 14.1641C57.776 13.9557 58.3646 13.8516 59.0312 13.8516ZM59.0312 14.8047C58.599 14.8047 58.2161 14.8698 57.8828 15C57.5547 15.125 57.2995 15.3021 57.1172 15.5312C56.9401 15.7604 56.8542 16.0234 56.8594 16.3203C56.8542 16.6328 56.9401 16.9062 57.1172 17.1406C57.2995 17.3698 57.5547 17.5469 57.8828 17.6719C58.2109 17.7969 58.5938 17.862 59.0312 17.8672C59.4635 17.862 59.8438 17.7969 60.1719 17.6719C60.5 17.5469 60.7552 17.3698 60.9375 17.1406C61.1198 16.9062 61.2135 16.6328 61.2188 16.3203C61.2135 16.0234 61.1172 15.7604 60.9297 15.5312C60.7474 15.3021 60.4922 15.125 60.1641 15C59.8359 14.8698 59.4583 14.8047 59.0312 14.8047Z" fill="#212121"/>
<path d="M71.6016 17.1719C71.9505 15.6823 72.1302 14.0755 72.1406 12.3516H69V13.3672H71.0703C71.0182 14.7995 70.8151 16.1224 70.4609 17.3359C70.112 18.5495 69.5312 19.6641 68.7188 20.6797L69.6875 21.2422C70.6146 20.013 71.2526 18.6562 71.6016 17.1719Z" fill="#212121"/>
<path d="M75.1719 14.3281C75.1979 13.7292 75.2135 13.0703 75.2188 12.3516H72.5781V13.3672H74.1406C74.1198 14.3984 74.0469 15.375 73.9219 16.2969C73.7969 17.2135 73.5677 18.1328 73.2344 19.0547C72.9062 19.9766 72.4427 20.8203 71.8438 21.5859L72.7969 22.1641C73.8073 20.8047 74.4922 19.1328 74.8516 17.1484H76.8594V23.8516H78.0312V11.0391H76.8594V16.1328H75.0156C75.0938 15.5286 75.1458 14.9271 75.1719 14.3281Z" fill="#212121"/>
<path d="M79.4531 24.5547H80.6406V10.6641H79.4531V24.5547Z" fill="#212121"/>
<path d="M93.2656 16.3984H95.5938V17.4141H93.2656V24.5547H92.0469V10.6641H93.2656V16.3984Z" fill="#212121"/>
<path d="M90.7031 13.9141H82.4375V12.8984H86.0156V10.8359H87.2344V12.8984H90.7031V13.9141Z" fill="#212121"/>
<path fill-rule="evenodd" clip-rule="evenodd" d="M86.6406 15.0703C87.2917 15.0703 87.875 15.2057 88.3906 15.4766C88.9062 15.7474 89.3099 16.125 89.6016 16.6094C89.8932 17.0938 90.0417 17.6432 90.0469 18.2578C90.0417 18.8724 89.8932 19.4219 89.6016 19.9062C89.3099 20.3906 88.9062 20.7682 88.3906 21.0391C87.875 21.3099 87.2917 21.4453 86.6406 21.4453C85.9844 21.4453 85.3958 21.3099 84.875 21.0391C84.3594 20.7682 83.9557 20.3906 83.6641 19.9062C83.3724 19.4219 83.2292 18.8724 83.2344 18.2578C83.2292 17.6432 83.3724 17.0938 83.6641 16.6094C83.9557 16.125 84.3594 15.7474 84.875 15.4766C85.3958 15.2057 85.9844 15.0703 86.6406 15.0703ZM86.6406 16.1016C86.2135 16.1016 85.8281 16.1953 85.4844 16.3828C85.1458 16.5651 84.8802 16.8203 84.6875 17.1484C84.4948 17.4766 84.401 17.8464 84.4062 18.2578C84.401 18.6745 84.4948 19.0469 84.6875 19.375C84.8802 19.6979 85.1458 19.9505 85.4844 20.1328C85.8281 20.3151 86.2135 20.4036 86.6406 20.3984C87.0625 20.4036 87.4427 20.3151 87.7812 20.1328C88.1198 19.9505 88.3854 19.6979 88.5781 19.375C88.7708 19.0469 88.8698 18.6745 88.875 18.2578C88.8698 17.8464 88.7708 17.4766 88.5781 17.1484C88.3854 16.8203 88.1198 16.5651 87.7812 16.3828C87.4427 16.1953 87.0625 16.1016 86.6406 16.1016Z" fill="#212121"/>
<path d="M148.656 12.4766H143.688V16.1328H144.188C145.427 16.1328 146.479 16.099 147.344 16.0312C148.214 15.9635 149.083 15.8411 149.953 15.6641L150.109 16.6484C149.229 16.8359 148.349 16.9635 147.469 17.0312C146.594 17.099 145.5 17.1328 144.188 17.1328H142.484V11.4766H148.656V12.4766Z" fill="#212121"/>
<path d="M152.703 13.6172H154.797V14.6328H152.703V17.6797H151.484V10.6641H152.703V13.6172Z" fill="#212121"/>
<path d="M152.703 21.7891H145.078V23.3672H153.219V24.3672H143.875V20.8203H151.484V19.3672H143.844V18.3672H152.703V21.7891Z" fill="#212121"/>
<path d="M160.453 12.8516C160.448 13.5026 160.589 14.125 160.875 14.7188C161.161 15.3073 161.565 15.8229 162.086 16.2656C162.612 16.7083 163.214 17.0443 163.891 17.2734L163.203 18.2266C162.432 17.9349 161.758 17.5156 161.18 16.9688C160.602 16.4219 160.164 15.7839 159.867 15.0547C159.57 15.888 159.115 16.6172 158.5 17.2422C157.885 17.862 157.161 18.3307 156.328 18.6484L155.656 17.6484C156.365 17.3984 156.987 17.0391 157.523 16.5703C158.065 16.0964 158.484 15.5443 158.781 14.9141C159.078 14.2786 159.229 13.6068 159.234 12.8984V11.4609H160.453V12.8516Z" fill="#212121"/>
<path d="M167.188 18.8984H165.953V14.6641H162.859V13.6484H165.953V10.6641H167.188V18.8984Z" fill="#212121"/>
<path fill-rule="evenodd" clip-rule="evenodd" d="M162.578 19.3047C163.542 19.3047 164.372 19.4089 165.07 19.6172C165.768 19.8203 166.302 20.1198 166.672 20.5156C167.047 20.9062 167.234 21.3776 167.234 21.9297C167.234 22.4766 167.047 22.9427 166.672 23.3281C166.302 23.7188 165.768 24.0156 165.07 24.2188C164.372 24.4219 163.542 24.5234 162.578 24.5234C161.615 24.5234 160.784 24.4219 160.086 24.2188C159.388 24.0156 158.852 23.7188 158.477 23.3281C158.107 22.9427 157.922 22.4766 157.922 21.9297C157.922 21.3776 158.107 20.9062 158.477 20.5156C158.852 20.1198 159.388 19.8203 160.086 19.6172C160.784 19.4089 161.615 19.3047 162.578 19.3047ZM162.578 20.2734C161.875 20.2734 161.263 20.3411 160.742 20.4766C160.221 20.6068 159.823 20.7969 159.547 21.0469C159.271 21.2969 159.135 21.5911 159.141 21.9297C159.135 22.2578 159.271 22.5443 159.547 22.7891C159.823 23.0286 160.221 23.2135 160.742 23.3438C161.263 23.474 161.875 23.5391 162.578 23.5391C163.281 23.5391 163.891 23.474 164.406 23.3438C164.927 23.2135 165.326 23.0286 165.602 22.7891C165.878 22.5443 166.016 22.2578 166.016 21.9297C166.016 21.5911 165.878 21.2969 165.602 21.0469C165.326 20.7969 164.927 20.6068 164.406 20.4766C163.891 20.3411 163.281 20.2734 162.578 20.2734Z" fill="#212121"/>
<path fill-rule="evenodd" clip-rule="evenodd" d="M128.016 22.8516H140.734V21.8359H137.094V18.5234H139.484V17.5078H137.312V12.9766H139.516V11.9609H129.141V12.9766H131.344V17.5078H129.172V18.5234H131.562V21.8359H128.016V22.8516ZM136.109 12.9766V17.5078H132.562V12.9766H136.109ZM135.875 21.8359H132.797V18.5234H135.875V21.8359Z" fill="#212121"/>
<path fill-rule="evenodd" clip-rule="evenodd" d="M125.234 15.9453H121.125V17.7266H126.844V18.7266H114.188V17.7266H119.906V15.9453H115.828V11.2578H125.234V15.9453ZM117.031 14.9609H124.016V12.2422H117.031V14.9609Z" fill="#212121"/>
<path d="M125.281 24.5547H124.047V21.1641H115.594V20.1797H125.281V24.5547Z" fill="#212121"/>
<path d="M98.0625 15.8672H107.578V14.8828H99.2812V11.1797H98.0625V15.8672Z" fill="#212121"/>
<path d="M96.3281 18.7578H109.047V17.7578H96.3281V18.7578Z" fill="#212121"/>
<path d="M97.9844 24.2109H107.656V23.1953H99.2031V20.1797H97.9844V24.2109Z" fill="#212121"/>
<path fill-rule="evenodd" clip-rule="evenodd" d="M43.1016 11.9922C42.5443 11.7161 41.9115 11.5755 41.2031 11.5703C40.4844 11.5755 39.8438 11.7161 39.2812 11.9922C38.7188 12.2682 38.2786 12.6536 37.9609 13.1484C37.6484 13.638 37.4948 14.2005 37.5 14.8359C37.4948 15.4089 37.6198 15.9271 37.875 16.3906C38.1354 16.849 38.5 17.2214 38.9688 17.5078C39.4375 17.7943 39.9792 17.974 40.5938 18.0469V20.4531C39.7396 20.4792 38.4896 20.4974 36.8438 20.5078L37.0469 21.5391H37.8906C39.3021 21.5391 40.6641 21.5026 41.9766 21.4297C43.2891 21.3568 44.5365 21.2214 45.7188 21.0234L45.6406 20.1016C44.5781 20.237 43.3073 20.3411 41.8281 20.4141V18.0469C42.4323 17.974 42.9635 17.7943 43.4219 17.5078C43.8854 17.2161 44.2474 16.8411 44.5078 16.3828C44.7682 15.9245 44.901 15.4089 44.9062 14.8359C44.901 14.2005 44.7396 13.638 44.4219 13.1484C44.1042 12.6536 43.6641 12.2682 43.1016 11.9922ZM39.9062 12.9141C40.2917 12.7266 40.724 12.6328 41.2031 12.6328C41.6771 12.6328 42.1016 12.7266 42.4766 12.9141C42.8568 13.1016 43.1536 13.362 43.3672 13.6953C43.5859 14.0286 43.6979 14.4089 43.7031 14.8359C43.6979 15.263 43.5859 15.6432 43.3672 15.9766C43.1536 16.3099 42.8568 16.5703 42.4766 16.7578C42.1016 16.9453 41.6771 17.0391 41.2031 17.0391C40.724 17.0391 40.2917 16.9453 39.9062 16.7578C39.526 16.5703 39.2292 16.3099 39.0156 15.9766C38.8021 15.6432 38.6979 15.263 38.7031 14.8359C38.6979 14.4089 38.8021 14.0286 39.0156 13.6953C39.2292 13.362 39.526 13.1016 39.9062 12.9141Z" fill="#212121"/>
<path d="M50.0156 16.3984H47.75V10.6641H46.5312V24.5547H47.75V17.4609H50.0156V16.3984Z" fill="#212121"/>
<path d="M34.4375 18.8984H30.125V21.8047H35.9062V22.8203H23.1875V21.8047H28.9062V18.8984H24.8281V11.8047H34.2812V12.8203H26.0781V14.8047H33.9844V15.8047H26.0781V17.8984H34.4375V18.8984Z" fill="#212121"/>
<path d="M19.9844 21.0703H21.1562V10.6641H19.9844V21.0703Z" fill="#212121"/>
<path fill-rule="evenodd" clip-rule="evenodd" d="M17.3281 20.6641H18.5V10.9453H17.3281V14.5859H15.375V12.0078H10V18.3516H15.375V15.6172H17.3281V20.6641ZM14.2344 17.3828H11.1562V12.9922H14.2344V17.3828Z" fill="#212121"/>
<path d="M12.0469 24.2578H21.5781V23.2266H13.2656V19.7734H12.0469V24.2578Z" fill="#212121"/>
<path fill-rule="evenodd" clip-rule="evenodd" d="M53.6181 40.9447H66.6381V51.2647H68.5581V40.7947H73.0281V68.2147H68.5581V55.0147H66.6381V68.0647H53.6181V40.9447ZM58.1781 44.6947V64.3447H62.0781V44.6947H58.1781Z" fill="#212121"/>
<path d="M74.2881 40.5547H78.7881V68.6347H74.2881V40.5547Z" fill="#212121"/>
<path d="M23.3641 61.0747H42.4141V60.1747H23.3641V56.7847H47.0641V64.3447H28.0441V65.2147H47.6641V68.6047H23.3641V61.0747Z" fill="#212121"/>
<path d="M21.4141 51.5647H30.9841V47.3347H35.6641V51.5647H48.9541V55.3147H21.4141V51.5647Z" fill="#212121"/>
<path d="M42.2641 44.6647H23.5141V40.9447H46.9141V50.2447H42.2641V44.6647Z" fill="#212121"/>
<path d="M104.422 40.5547V68.6047H109.072V40.5547H104.422Z" fill="#212121"/>
<path fill-rule="evenodd" clip-rule="evenodd" d="M99.4722 63.2947C99.7122 62.3147 99.8322 61.2947 99.8322 60.2347V48.7747C99.8322 47.7347 99.7122 46.7247 99.4722 45.7447C99.2522 44.7647 98.8522 43.8947 98.2722 43.1347C97.6922 42.3747 96.9022 41.7747 95.9022 41.3347C94.9222 40.8747 93.6722 40.6447 92.1522 40.6447C90.5522 40.6447 89.2522 40.8747 88.2522 41.3347C87.2522 41.7947 86.4722 42.4047 85.9122 43.1647C85.3522 43.9047 84.9622 44.7647 84.7422 45.7447C84.5422 46.7247 84.4422 47.7347 84.4422 48.7747V60.2347C84.4422 61.2747 84.5422 62.2847 84.7422 63.2647C84.9622 64.2447 85.3522 65.1047 85.9122 65.8447C86.4722 66.6047 87.2522 67.2147 88.2522 67.6747C89.2522 68.1347 90.5522 68.3647 92.1522 68.3647C93.6722 68.3647 94.9222 68.1347 95.9022 67.6747C96.9022 67.2347 97.6922 66.6347 98.2722 65.8747C98.8522 65.1147 99.2522 64.2547 99.4722 63.2947ZM89.8722 63.7447C89.3722 63.1647 89.1222 62.1847 89.1222 60.8047V48.2047C89.1222 46.8247 89.3722 45.8447 89.8722 45.2647C90.3722 44.6847 91.1422 44.3947 92.1822 44.3947C93.2622 44.3947 94.0222 44.6947 94.4622 45.2947C94.9222 45.8947 95.1522 46.8547 95.1522 48.1747V60.8347C95.1522 62.1547 94.9222 63.1147 94.4622 63.7147C94.0222 64.3147 93.2622 64.6147 92.1822 64.6147C91.1422 64.6147 90.3722 64.3247 89.8722 63.7447Z" fill="#212121"/>
<path d="M120.936 54.8647H139.986V58.6147H116.256V40.9447H139.836V44.7247H120.936V47.9647H139.206V51.7147H120.936V54.8647Z" fill="#212121"/>
<path d="M114.156 64.2547H141.756V68.0047H114.156V64.2547Z" fill="#212121"/>
<path d="M146.281 40.5547C145.991 40.5547 145.756 40.7897 145.756 41.0797V68.0297C145.756 68.3196 145.991 68.5547 146.281 68.5547H148.062C148.352 68.5547 148.587 68.3196 148.587 68.0297V58.8183C148.587 58.5942 148.729 58.3947 148.941 58.3218L166.651 52.232C167.124 52.0696 167.124 51.4015 166.651 51.2391L148.941 45.1493C148.729 45.0764 148.587 44.877 148.587 44.6528V41.0797C148.587 40.7897 148.352 40.5547 148.062 40.5547H146.281Z" fill="#212121"/>
</svg>
