<svg width="321" height="321" viewBox="0 0 321 321" fill="none" xmlns="http://www.w3.org/2000/svg">
<rect x="0.453125" y="0.510742" width="320" height="320" fill="white"/>
<rect x="136.184" y="161.834" width="63.7378" height="63.7378" rx="10" transform="rotate(14.7134 136.184 161.834)" fill="#AEFF23"/>
<path d="M147.316 190.092C147.943 191.174 154.712 202.547 154.712 202.547L152.651 203.931C152.651 203.931 142.308 190.3 144.054 189.446C145.8 188.591 146.689 189.01 147.316 190.092Z" fill="#757575"/>
<rect x="136.957" y="193.519" width="9.9441" height="26.3652" rx="2" transform="rotate(-30 136.957 193.519)" fill="#212121"/>
<path d="M178.715 191.287C177.893 190.26 176.832 190.099 175.935 190.301L149.765 214.445C149.765 214.445 149.435 214.946 149.491 215.038C150.496 216.699 151.925 216.426 152.987 215.826C161.901 210.79 179.459 200.253 180.867 199.558C182.11 198.945 182.124 197.435 181.831 196.689C181.146 195.356 179.537 192.314 178.715 191.287Z" fill="#757575"/>
<rect x="176.914" y="189.601" width="9.9441" height="36.4667" rx="2" transform="rotate(60 176.914 189.601)" fill="#212121"/>
</svg>
