<svg width="156" height="119" viewBox="0 0 156 119" fill="none" xmlns="http://www.w3.org/2000/svg">
<rect y="0.5" width="156" height="118" rx="4" fill="#EEEEEE"/>
<path d="M44.975 59.76H54.5V59.31H44.975V57.615H56.825V61.395H47.315V61.83H57.125V63.525H44.975V59.76ZM44 55.005H48.785V52.89H51.125V55.005H57.77V56.88H44V55.005ZM54.425 51.555H45.05V49.695H56.75V54.345H54.425V51.555Z" fill="#BDBDBD"/>
<path d="M60.102 49.695H66.612V54.855H67.572V49.62H69.807V63.33H67.572V56.73H66.612V63.255H60.102V49.695ZM70.437 49.5H72.687V63.54H70.437V49.5ZM62.382 51.57V61.395H64.332V51.57H62.382Z" fill="#BDBDBD"/>
<path d="M85.5041 63.525V49.5H87.8291V63.525H85.5041ZM83.2091 59.34C83.2091 59.87 83.1491 60.38 83.0291 60.87C82.9191 61.35 82.7191 61.78 82.4291 62.16C82.1391 62.54 81.7441 62.84 81.2441 63.06C80.7541 63.29 80.1291 63.405 79.3691 63.405C78.5691 63.405 77.9191 63.29 77.4191 63.06C76.9191 62.83 76.5291 62.525 76.2491 62.145C75.9691 61.775 75.7741 61.345 75.6641 60.855C75.5641 60.365 75.5141 59.86 75.5141 59.34V53.61C75.5141 53.09 75.5641 52.585 75.6641 52.095C75.7741 51.605 75.9691 51.175 76.2491 50.805C76.5291 50.425 76.9191 50.12 77.4191 49.89C77.9191 49.66 78.5691 49.545 79.3691 49.545C80.1291 49.545 80.7541 49.66 81.2441 49.89C81.7441 50.11 82.1391 50.41 82.4291 50.79C82.7191 51.17 82.9191 51.605 83.0291 52.095C83.1491 52.585 83.2091 53.09 83.2091 53.61V59.34ZM77.8541 59.625C77.8541 60.315 77.9791 60.805 78.2291 61.095C78.4791 61.385 78.8641 61.53 79.3841 61.53C79.9241 61.53 80.3041 61.38 80.5241 61.08C80.7541 60.78 80.8691 60.3 80.8691 59.64V53.31C80.8691 52.65 80.7541 52.17 80.5241 51.87C80.3041 51.57 79.9241 51.42 79.3841 51.42C78.8641 51.42 78.4791 51.565 78.2291 51.855C77.9791 52.145 77.8541 52.635 77.8541 53.325V59.625Z" fill="#BDBDBD"/>
<path d="M93.7611 56.655H103.286V58.53H91.4211V49.695H103.211V51.585H93.7611V53.205H102.896V55.08H93.7611V56.655ZM90.3711 61.35H104.171V63.225H90.3711V61.35Z" fill="#BDBDBD"/>
<path d="M108.172 49.7825C108.172 49.6375 108.289 49.52 108.434 49.52H109.325C109.47 49.52 109.587 49.6375 109.587 49.7825V51.5691C109.587 51.6812 109.658 51.7809 109.764 51.8173L118.619 54.8622C118.856 54.9434 118.856 55.2775 118.619 55.3587L109.764 58.4036C109.658 58.44 109.587 58.5398 109.587 58.6518V63.2575C109.587 63.4025 109.47 63.52 109.325 63.52H108.434C108.289 63.52 108.172 63.4025 108.172 63.2575V49.7825Z" fill="#BDBDBD"/>
</svg>
