<svg width="25" height="25" viewBox="0 0 25 25" fill="none" xmlns="http://www.w3.org/2000/svg">
<path fill-rule="evenodd" clip-rule="evenodd" d="M16.9266 7.61624C16.9266 10.1646 14.8607 12.2305 12.3123 12.2305C9.76394 12.2305 7.69806 10.1646 7.69806 7.61624C7.69806 5.06784 9.76394 3.00195 12.3123 3.00195C14.8607 3.00195 16.9266 5.06784 16.9266 7.61624ZM20.8125 19.0713C20.8125 17.6543 19.917 16.2953 18.3229 15.2933C16.7288 14.2913 14.5668 13.7284 12.3125 13.7284C10.0582 13.7284 7.89615 14.2913 6.30209 15.2933C4.70803 16.2953 3.8125 17.6543 3.8125 19.0713V20.7856C3.8125 21.4483 4.34976 21.9856 5.0125 21.9856H19.6125C20.2752 21.9856 20.8125 21.4483 20.8125 20.7856V19.0713Z" fill="#BDBDBD"/>
</svg>
