<svg width="24" height="24" viewBox="0 0 24 24" fill="none" xmlns="http://www.w3.org/2000/svg">
<path fill-rule="evenodd" clip-rule="evenodd" d="M21.0699 4.30994L12.6077 11.8696C12.2282 12.2086 11.6547 12.2086 11.2752 11.8696L2.86285 4.35452C3.18571 4.13097 3.57756 4 4 4H20C20.3935 4 20.7605 4.11366 21.0699 4.30994ZM21.7546 5.03925C21.911 5.32439 22 5.6518 22 6V18C22 19.1046 21.1046 20 20 20H4C2.89543 20 2 19.1046 2 18V6C2 5.68049 2.07492 5.37848 2.20816 5.11058L10.609 12.6154C11.3679 13.2933 12.5149 13.2933 13.2739 12.6154L21.7546 5.03925Z" fill="#BDBDBD"/>
</svg>
