<svg width="28" height="24" viewBox="0 0 28 24" fill="none" xmlns="http://www.w3.org/2000/svg">
<path d="M12.1136 1.09091C12.952 -0.363637 15.048 -0.363636 15.8864 1.09091L27.2049 20.7273C28.0433 22.1818 26.9953 24 25.3185 24H2.68149C1.00468 24 -0.0433279 22.1818 0.79508 20.7273L12.1136 1.09091Z" fill="#FFCC00"/>
<path fill-rule="evenodd" clip-rule="evenodd" d="M14 8C13.4477 8 13 8.44772 13 9V15C13 15.5523 13.4477 16 14 16H15C15.5523 16 16 15.5523 16 15V9C16 8.44772 15.5523 8 15 8H14ZM14.5 20.9096C15.3284 20.9096 16 20.238 16 19.4096C16 18.5811 15.3284 17.9096 14.5 17.9096C13.6716 17.9096 13 18.5811 13 19.4096C13 20.238 13.6716 20.9096 14.5 20.9096Z" fill="white"/>
</svg>
